<?xml version="1.0" encoding="UTF-8" standalone="no"?>
<svg
   width="139.936"
   height="158.52"
   viewBox="0 0 139.936 158.52"
   fill="none"
   version="1.1"
   id="svg413"
   sodipodi:docname="chevron-6.svg"
   inkscape:version="1.2.2 (1:1.2.2+202212051552+b0a8486541)"
   inkscape:dataloss="true"
   inkscape:export-filename="chevron-5.svg"
   inkscape:export-xdpi="82.192528"
   inkscape:export-ydpi="82.192528"
   xml:space="preserve"
   xmlns:inkscape="http://www.inkscape.org/namespaces/inkscape"
   xmlns:sodipodi="http://sodipodi.sourceforge.net/DTD/sodipodi-0.dtd"
   xmlns="http://www.w3.org/2000/svg"
   xmlns:svg="http://www.w3.org/2000/svg"><sodipodi:namedview
     id="namedview415"
     pagecolor="#505050"
     bordercolor="#ffffff"
     borderopacity="1"
     inkscape:showpageshadow="0"
     inkscape:pageopacity="0"
     inkscape:pagecheckerboard="1"
     inkscape:deskcolor="#505050"
     showgrid="false"
     inkscape:zoom="1.9504132"
     inkscape:cx="125.61441"
     inkscape:cy="71.010593"
     inkscape:window-width="1920"
     inkscape:window-height="1164"
     inkscape:window-x="0"
     inkscape:window-y="0"
     inkscape:window-maximized="1"
     inkscape:current-layer="svg413" /><defs
     id="defs411" /><path
     style="fill:#ff6922;stroke-width:0.181271"
     d="M 89.729048,128.87943 C 89.728887,102.18321 89.517898,58.382765 89.388793,58.243953 89.326744,58.177238 80.547778,58.078171 69.879978,58.023804 25.508661,57.797674 8.7671782,57.681034 5.1847621,57.573065 L 1.3966087,57.458895 26.208373,32.737846 51.020135,8.0167982 90.450411,8.1540398 c 21.686649,0.075483 39.715779,0.1514207 40.064719,0.1687507 0.34895,0.01733 2.49022,0.047436 4.75837,0.066901 l 4.12391,0.035392 v 44.3663315 44.36633 l -24.83413,24.833635 -24.834125,24.83363 z"
     id="path4128" /><path
     style="fill:#ffd688;stroke-width:0.256356"
     d="M 89.674514,102.43549 C 89.631551,78.266428 89.500345,58.395639 89.38295,58.278182 89.265552,58.160722 74.38409,57.97801 56.313034,57.872152 38.241976,57.766295 18.556264,57.60806 12.567004,57.520514 L 1.6774393,57.36134 26.339916,32.782365 51.002393,8.2033899 68.76126,8.2035274 c 9.767377,7.56e-5 29.612126,0.076797 44.09944,0.170491 l 26.34057,0.1703534 V 52.912585 97.280799 l -24.54608,24.548931 c -13.50034,13.50192 -24.626287,24.54907 -24.72432,24.54922 -0.09803,1.6e-4 -0.213394,-19.7744 -0.256356,-43.94346 z"
     id="path5205" /></svg>
