<svg width="1392" height="700" viewBox="0 0 1392 700" fill="none" xmlns="http://www.w3.org/2000/svg">
<g clip-path="url(#clip0_915_6714)">
<path opacity="0.05" d="M598.421 0L108.95 484.508H904.516V1256.3L1392 778.682V0H598.421Z" fill="#4021CE"/>
<path opacity="0.2667" d="M696.049 7.47559L270.623 428.569H962.094V1099.34L1385.79 684.24V7.47559H696.049Z" fill="#4021CE"/>
<path opacity="0.475" d="M742.675 15.7607L350.262 404.209H988.199V1023.07L1379.09 640.113V15.7607H742.675Z" fill="#502AD9"/>
<path opacity="0.6433" d="M789.402 24.0479L429.903 379.851H1014.31V946.699L1372.38 595.988V24.0479H789.402Z" fill="#5F32E4"/>
<path opacity="0.8717" d="M836.126 32.2344L509.539 355.492H1040.41V870.427L1365.57 551.762V32.2344H836.126Z" fill="#6E3BF0"/>
<path d="M882.855 40.5205L589.282 331.133H1066.62V794.056L1359.07 507.537V40.5205H882.855Z" fill="#7E44FB"/>
<path d="M915.668 47.5088L646.881 313.662H1083.79V737.451L1351.56 475.191V47.5088H915.668Z" fill="#944AD7"/>
<path d="M948.586 54.5967L704.585 296.091H1101.16V680.746L1344.15 442.745V54.5967H948.586Z" fill="#A950B3"/>
<path d="M981.39 61.6836L762.277 278.619H1118.53V624.139L1336.72 410.298V61.6836H981.39Z" fill="#BF578F"/>
<path d="M1014.3 68.6738L819.976 261.051H1135.9V567.437L1329.41 377.855V68.6738H1014.3Z" fill="#D45D6A"/>
<path d="M1047.22 75.7598L877.675 243.578H1153.17V510.829L1322 345.407V75.7598H1047.22Z" fill="#E96346"/>
<path d="M1080.02 82.8486L935.37 226.008H1170.53V454.125L1314.58 312.962V82.8486H1080.02Z" fill="#FF6922"/>
<path d="M1104.3 88.6377L977.631 214.027H1183.54V413.792L1309.7 290.199V88.6377H1104.3Z" fill="#FF8239"/>
<path d="M1128.59 94.5293L1019.89 202.049H1196.65V373.461L1304.83 267.439V94.5293H1128.59Z" fill="#FF9B51"/>
<path d="M1152.86 100.319L1062.15 190.069H1209.64V333.129L1299.95 244.677V100.319H1152.86Z" fill="#FFB468"/>
<path d="M1177.14 106.209L1104.41 178.188H1222.65V292.796L1295.08 221.815V106.209H1177.14Z" fill="#FFCD7F"/>
<path d="M1201.42 112L1146.67 166.209H1235.65V252.464L1290.2 199.054V112H1201.42Z" fill="#FFE697"/>
<path d="M1225.7 117.89L1188.93 154.229H1248.66V212.131L1285.23 176.292V117.89H1225.7Z" fill="#FFFFAE"/>
</g>
<defs>
<clipPath id="clip0_915_6714">
<rect width="1392" height="700" fill="white"/>
</clipPath>
</defs>
</svg>
