<?xml version="1.0" encoding="UTF-8" standalone="no"?>
<!-- Created with Inkscape (http://www.inkscape.org/) -->

<svg
   width="133.77333mm"
   height="133.77332mm"
   viewBox="0 0 133.77333 133.77332"
   version="1.1"
   id="svg5"
   xml:space="preserve"
   inkscape:export-filename="hero-2.svg"
   inkscape:export-xdpi="300"
   inkscape:export-ydpi="300"
   sodipodi:docname="hero.svg"
   xmlns:inkscape="http://www.inkscape.org/namespaces/inkscape"
   xmlns:sodipodi="http://sodipodi.sourceforge.net/DTD/sodipodi-0.dtd"
   xmlns="http://www.w3.org/2000/svg"
   xmlns:svg="http://www.w3.org/2000/svg"><sodipodi:namedview
     id="namedview7"
     pagecolor="#505050"
     bordercolor="#ffffff"
     borderopacity="1"
     inkscape:showpageshadow="0"
     inkscape:pageopacity="0"
     inkscape:pagecheckerboard="1"
     inkscape:deskcolor="#505050"
     inkscape:document-units="mm"
     showgrid="false" /><defs
     id="defs2" /><g
     inkscape:label="Layer 1"
     inkscape:groupmode="layer"
     id="layer1"
     transform="translate(-22.657675,-87.575643)"><path
       style="fill:#ffd688;fill-opacity:1;stroke-width:0.757443"
       d="m 214.54576,503.35068 c -1.27817,-1.27802 -1.70425,-2.58362 -1.70425,-5.2222 0,-3.40408 -0.0737,-3.51814 -2.27233,-3.51814 -1.24978,0 -2.27233,-0.27947 -2.27233,-0.62105 0,-0.34158 -3.14275,-1.03948 -6.9839,-1.55089 -3.84114,-0.51141 -7.16442,-1.21989 -7.38507,-1.5744 -0.22064,-0.3545 -2.36105,-0.88885 -4.75647,-1.18743 -2.39541,-0.29859 -4.35529,-0.81449 -4.35529,-1.14647 0,-0.33198 -1.36161,-0.83363 -3.02581,-1.11479 -1.66419,-0.28117 -3.20885,-0.80739 -3.43256,-1.16937 -0.22372,-0.36199 -2.44103,-1.05837 -4.92735,-1.54752 -2.48632,-0.48916 -4.52059,-1.14794 -4.52059,-1.46397 0,-0.31604 -1.19297,-0.79841 -2.65105,-1.07194 -1.45808,-0.27354 -2.65105,-0.76831 -2.65105,-1.09949 0,-0.33118 -1.87467,-1.05187 -4.16594,-1.60154 -2.29126,-0.54967 -4.16594,-1.25872 -4.16594,-1.57568 0,-0.31696 -1.02254,-0.80087 -2.27232,-1.07537 -1.24979,-0.2745 -2.27233,-0.7583 -2.27233,-1.07512 0,-0.3168 -1.3634,-1.02598 -3.02978,-1.57593 -1.66637,-0.54996 -3.02977,-1.25913 -3.02977,-1.57594 0,-0.31681 -1.02255,-0.80062 -2.27233,-1.07511 -1.24978,-0.2745 -2.27233,-0.7583 -2.27233,-1.07512 0,-0.31681 -1.36339,-1.02598 -3.02977,-1.57593 -1.66637,-0.54996 -3.02977,-1.28621 -3.02977,-1.63613 0,-0.34991 -0.45913,-0.6362 -1.02027,-0.6362 -0.56114,0 -1.80627,-0.6817 -2.76695,-1.51489 -0.96067,-0.83319 -2.15364,-1.51489 -2.65105,-1.51489 -0.4974,0 -1.69038,-0.68169 -2.65105,-1.51488 -0.96067,-0.83319 -2.1774,-1.51489 -2.70383,-1.51489 -0.52643,0 -1.07076,-0.25564 -1.20963,-0.56808 -0.33466,-0.75299 -4.44835,-3.57039 -6.12266,-4.19332 -0.72904,-0.27123 -1.32553,-0.80775 -1.32553,-1.19226 0,-0.3845 -0.91842,-0.92961 -2.04093,-1.21134 -1.60671,-0.40326 -2.32269,-0.13871 -3.36522,1.24341 -1.0667,1.41415 -2.04159,1.75565 -5.01177,1.75565 H 99.511064 L 74.18307,431.05266 C 49.172489,406.063 48.85508,405.70704 48.85508,402.64855 c 0,-3.62971 1.995313,-6.07506 5.603702,-6.8676 1.292197,-0.28381 2.34945,-0.79108 2.34945,-1.12728 0,-0.33619 1.457669,-0.82984 3.239265,-1.09701 1.781596,-0.26717 4.181939,-0.97483 5.334096,-1.57257 1.152157,-0.59775 3.273407,-1.30792 4.713888,-1.57815 1.440481,-0.27024 2.619056,-0.75556 2.619056,-1.07848 0,-0.32293 1.533822,-0.81716 3.408494,-1.09828 1.874672,-0.28113 3.408494,-0.77686 3.408494,-1.10163 0,-0.32478 1.942879,-1.0253 4.317517,-1.55672 7.351985,-1.64531 8.733841,-3.48293 5.150522,-6.84928 -1.041485,-0.97843 -1.893608,-2.19435 -1.893608,-2.70205 0,-0.5077 -0.511274,-1.11928 -1.136165,-1.35908 -0.62489,-0.23979 -1.136164,-0.90513 -1.136164,-1.47853 0,-0.5734 -0.681699,-1.65947 -1.514887,-2.41349 -0.833187,-0.75403 -1.514886,-1.79294 -1.514886,-2.30869 0,-0.51575 -0.511274,-1.13392 -1.136164,-1.37372 -0.624891,-0.23979 -1.136165,-0.95796 -1.136165,-1.59593 0,-0.63796 -0.277232,-1.15993 -0.616066,-1.15993 -0.338842,0 -1.078592,-1.17878 -1.643887,-2.61952 -0.565302,-1.44073 -1.481043,-2.79343 -2.034984,-3.006 -0.553941,-0.21256 -1.007165,-0.90845 -1.007165,-1.54642 0,-0.63797 -0.296552,-1.15994 -0.659005,-1.15994 -0.362452,0 -1.088448,-1.53382 -1.613324,-3.40849 -0.524875,-1.87467 -1.250872,-3.40849 -1.613324,-3.40849 -0.362453,0 -0.659005,-0.52197 -0.659005,-1.15994 0,-0.63797 -0.483466,-1.34546 -1.074369,-1.57221 -0.590902,-0.22675 -1.477023,-2.09073 -1.969156,-4.14216 -0.492132,-2.05145 -1.164689,-3.7299 -1.494569,-3.7299 -0.32988,0 -0.813651,-0.85212 -1.075047,-1.8936 -0.261396,-1.04149 -0.775624,-1.89361 -1.14273,-1.89361 -0.367105,0 -1.088162,-1.75366 -1.602348,-3.89703 -0.514186,-2.14338 -1.398207,-4.78496 -1.964489,-5.87019 -0.566284,-1.08523 -1.031706,-2.56964 -1.034272,-3.29868 -0.0026,-0.72903 -0.291277,-1.32552 -0.641578,-1.32552 -0.350301,0 -1.055144,-1.86886 -1.566316,-4.15302 -0.511174,-2.28416 -1.213573,-4.32865 -1.56089,-4.5433 -0.347316,-0.21465 -0.868914,-2.43599 -1.159105,-4.9363 -0.290192,-2.50031 -0.810477,-4.54601 -1.156191,-4.54601 -0.345713,0 -0.862793,-1.87468 -1.149068,-4.16594 -0.286275,-2.29127 -0.775296,-4.16594 -1.086712,-4.16594 -0.311417,0 -1.000622,-4.26062 -1.531567,-9.46804 -0.530945,-5.20742 -1.293563,-9.46804 -1.694707,-9.46804 -1.209282,0 -9.666939,4.06139 -9.666939,4.64209 0,0.29681 -1.022549,0.76424 -2.27233,1.03874 -1.249781,0.27449 -2.272329,0.78577 -2.272329,1.13616 0,0.35039 -0.994524,0.85551 -2.210054,1.12249 -3.504487,0.76971 -5.364377,2.84051 -5.364377,5.97271 0,1.51335 0.290504,2.75156 0.645564,2.75156 0.355059,0 1.087104,3.57892 1.626765,7.95315 0.539662,4.37424 1.227794,7.95316 1.529184,7.95316 0.301391,0 0.774058,1.70424 1.050374,3.78721 0.276316,2.08297 0.753769,3.78722 1.061009,3.78722 0.307239,0 0.993112,2.29045 1.524161,5.08989 0.531049,2.79945 1.27446,5.28081 1.652022,5.51417 0.377563,0.23334 0.916487,1.86266 1.197609,3.6207 0.281122,1.75804 0.743979,3.19643 1.028572,3.19643 0.284593,0 0.971335,1.78946 1.526095,3.97658 0.55476,2.18711 1.215684,4.147 1.46872,4.35529 0.728394,0.59961 2.914092,5.4121 3.870102,8.52124 0.480361,1.56222 1.160717,2.84041 1.511902,2.84041 0.351186,0 0.863108,1.02255 1.137606,2.27233 0.274498,1.24978 0.785772,2.27233 1.136165,2.27233 0.350392,0 0.861666,1.02255 1.136165,2.27233 0.274498,1.24978 0.812854,2.27233 1.196347,2.27233 1.249283,0 0.751055,5.31138 -0.628265,6.69763 -3.142257,3.15806 -8.521235,5.17815 -8.521235,3.20017 0,-0.38852 -0.664808,-0.91741 -1.47735,-1.17529 -0.812543,-0.2579 -2.071112,-1.81469 -2.79682,-3.45954 -0.725707,-1.64486 -1.594722,-2.99064 -1.931143,-2.99064 -0.336421,0 -0.611675,-0.4642 -0.611675,-1.03154 0,-0.56734 -1.363397,-3.68206 -3.029772,-6.92162 -1.666375,-3.23955 -3.029773,-6.37863 -3.029773,-6.97572 0,-0.5971 -0.511274,-1.59691 -1.136164,-2.2218 -0.624891,-0.62489 -1.136165,-1.93959 -1.136165,-2.92157 0,-0.98197 -0.470274,-2.25567 -1.045053,-2.83045 -0.574779,-0.57478 -1.286438,-2.4738 -1.581464,-4.22004 -0.295026,-1.74625 -0.800725,-3.17499 -1.123776,-3.17499 -0.323052,0 -1.023483,-2.05507 -1.556514,-4.56683 -0.533031,-2.51175 -1.241611,-4.73522 -1.574622,-4.94103 -0.333012,-0.20582 -0.834294,-1.90009 -1.113963,-3.76505 -0.279668,-1.86496 -0.755754,-3.39084 -1.057968,-3.39084 -0.302215,0 -0.986032,-2.98243 -1.519592,-6.62762 -0.533561,-3.6452 -1.228083,-6.96848 -1.543383,-7.38507 -0.3153,-0.4166 -0.810281,-2.71733 -1.099959,-5.11274 l -0.526687,-4.3553 H 7.8403851 c -2.7615169,0 -3.8344926,-0.42224 -5.6263207,-2.21407 L 0,288.70235 v -36.07298 -36.07298 l 2.0042116,-1.85744 c 1.545593,-1.43241 2.831726,-1.85744 5.6205355,-1.85744 h 3.6163239 l 0.527249,-4.92338 c 0.289987,-2.70786 0.762236,-4.92338 1.049443,-4.92338 0.287206,0 0.976716,-3.06764 1.532243,-6.81699 0.555527,-3.74934 1.259468,-6.81699 1.564314,-6.81699 0.304845,0 0.780341,-1.70424 1.056656,-3.78721 0.276316,-2.08297 0.794507,-3.78722 1.151537,-3.78722 0.35703,0 1.089521,-2.21552 1.627757,-4.92338 0.538237,-2.70786 1.22697,-4.92338 1.530519,-4.92338 0.303548,0 0.78225,-1.36339 1.063782,-3.02977 0.281533,-1.66637 0.78877,-3.02977 1.127195,-3.02977 0.338424,0 1.02416,-1.70425 1.523856,-3.78722 0.499697,-2.08297 1.177458,-3.78721 1.506138,-3.78721 0.328679,0 0.821401,-1.19298 1.094938,-2.65105 0.273537,-1.45808 0.795663,-2.65105 1.160279,-2.65105 0.364616,0 0.887527,-1.02255 1.162025,-2.27233 0.274498,-1.24979 0.799172,-2.27233 1.165943,-2.27233 0.366771,0 1.075339,-1.3634 1.574597,-3.02978 0.499258,-1.66637 1.167557,-3.02977 1.485108,-3.02977 0.317552,0 0.801956,-1.02255 1.076454,-2.27233 0.274498,-1.24978 0.758298,-2.27233 1.075112,-2.27233 0.316813,0 1.025986,-1.36339 1.575939,-3.02977 0.549953,-1.66637 1.212951,-3.02977 1.473328,-3.02977 0.260378,0 1.484007,-1.87348 2.719176,-4.16329 1.235169,-2.28981 2.501399,-4.16448 2.813844,-4.16593 0.312446,-0.002 0.568083,-0.46178 0.568083,-1.02292 0,-0.56115 0.69098,-1.81698 1.535512,-2.79073 0.844532,-0.97376 1.727416,-2.53507 1.961965,-3.46959 0.234549,-0.93451 0.906966,-1.88351 1.49426,-2.10888 0.587294,-0.22536 1.067807,-0.90332 1.067807,-1.50657 0,-0.60325 0.426062,-1.27248 0.946804,-1.48718 0.626688,-0.25837 0.178527,-1.09078 -1.325525,-2.462 -1.902863,-1.7348 -2.268661,-2.63604 -2.249768,-5.54294 l 0.02256,-3.471303 25.351786,-25.351782 25.351779,-25.351783 3.471304,-0.02256 c 2.9069,-0.01889 3.80814,0.346905 5.54294,2.249768 1.37122,1.504052 2.20363,1.952213 2.462,1.325525 0.2147,-0.520742 0.88393,-0.946804 1.48718,-0.946804 0.60325,0 1.28121,-0.480513 1.50657,-1.067807 0.22537,-0.587294 1.17437,-1.259711 2.10888,-1.49426 0.93452,-0.234549 2.49583,-1.117433 3.46959,-1.961965 0.97375,-0.844529 2.22958,-1.535509 2.79073,-1.535509 0.56114,0 1.02145,-0.255637 1.02292,-0.568083 0.002,-0.312445 1.87612,-1.578675 4.16593,-2.813844 2.28981,-1.235169 4.16329,-2.458798 4.16329,-2.719176 0,-0.260377 1.3634,-0.923375 3.02977,-1.473328 1.66638,-0.549953 3.02977,-1.259126 3.02977,-1.575939 0,-0.316814 1.02255,-0.800614 2.27233,-1.075112 1.24978,-0.274498 2.27233,-0.758902 2.27233,-1.076454 0,-0.317551 1.3634,-0.98585 3.02977,-1.485108 1.66638,-0.499258 3.02978,-1.207826 3.02978,-1.574597 0,-0.366771 1.02254,-0.891445 2.27233,-1.165943 1.24978,-0.274498 2.27233,-0.797409 2.27233,-1.162025 0,-0.364616 1.19297,-0.886742 2.65105,-1.160279 1.45807,-0.273537 2.65105,-0.766259 2.65105,-1.094938 0,-0.32868 1.70424,-1.006441 3.78721,-1.506138 2.08297,-0.499696 3.78722,-1.185432 3.78722,-1.523856 0,-0.338425 1.3634,-0.845662 3.02977,-1.127195 1.66638,-0.281532 3.02977,-0.760234 3.02977,-1.063782 0,-0.303549 2.21552,-0.992282 4.92338,-1.530519 2.70786,-0.538236 4.92338,-1.270727 4.92338,-1.627757 0,-0.35703 1.70425,-0.875221 3.78722,-1.151537 2.08297,-0.276315 3.78721,-0.751811 3.78721,-1.056656 0,-0.304846 3.06765,-1.008787 6.81699,-1.564314 3.74935,-0.555527 6.81699,-1.245037 6.81699,-1.532243 0,-0.287207 2.21552,-0.759456 4.92338,-1.049443 l 4.92338,-0.527249 V 7.6247471 c 0,-2.7888095 0.42503,-4.0749425 1.85744,-5.6205355 L 216.55639,0 h 36.07298 36.07298 l 2.21406,2.2140644 c 1.79183,1.7918281 2.21407,2.8648038 2.21407,5.6263207 v 3.4122559 l 4.3553,0.526687 c 2.39541,0.289678 4.69614,0.784659 5.11274,1.099959 0.41659,0.3153 3.73987,1.009822 7.38507,1.543383 3.64519,0.53356 6.62762,1.217377 6.62762,1.519592 0,0.302214 1.52588,0.7783 3.39084,1.057968 1.86496,0.279669 3.55923,0.780951 3.76505,1.113963 0.20581,0.333011 2.42928,1.041591 4.94103,1.574622 2.51176,0.533031 4.56683,1.233462 4.56683,1.556514 0,0.323051 1.42874,0.82875 3.17499,1.123776 1.74624,0.295026 3.64526,1.006685 4.22004,1.581464 0.57478,0.574779 1.84848,1.045053 2.83045,1.045053 0.98198,0 2.27985,0.494446 2.88417,1.098769 0.60433,0.604323 1.9592,1.314723 3.01083,1.578666 1.05164,0.263943 4.22613,1.644168 7.05443,3.067167 2.82829,1.423 5.58796,2.587272 6.13259,2.587272 0.54462,0 0.99023,0.269923 0.99023,0.599829 0,0.629902 8.39183,4.702273 9.68985,4.702273 0.41375,0 0.94846,0.511274 1.18826,1.136165 0.23979,0.62489 0.95796,1.136164 1.59593,1.136164 0.63796,0 1.15993,0.277231 1.15993,0.61607 0,0.338837 1.19297,1.084154 2.65105,1.656259 1.45808,0.572106 2.65105,1.317423 2.65105,1.65626 0,0.338839 0.49434,0.61607 1.09853,0.61607 0.60419,0 1.3711,0.426617 1.70425,0.948039 0.33314,0.521422 1.62827,1.458214 2.87805,2.081761 1.24978,0.623547 2.44275,1.312563 2.65105,1.531146 0.20829,0.218584 1.34022,1.009732 2.5154,1.758107 2.12167,1.351128 2.15057,1.345688 4.1159,-0.774939 1.55914,-1.682343 2.64724,-2.13562 5.12657,-2.13562 3.12421,0 3.33336,0.186175 28.45415,25.32799 l 25.3068,25.327994 v 3.687476 c 0,2.97018 -0.3415,3.94507 -1.75565,5.01177 -1.38212,1.04253 -1.64667,1.75851 -1.24341,3.36522 0.28173,1.12251 0.82684,2.04093 1.21134,2.04093 0.38451,0 0.92103,0.59649 1.19226,1.32553 0.62293,1.67431 3.44033,5.788 4.19332,6.12266 0.31244,0.13887 0.56808,0.6832 0.56808,1.20963 0,0.52643 0.6817,1.74316 1.51489,2.70383 0.83319,0.96067 1.51488,2.15365 1.51488,2.65105 0,0.49741 0.6817,1.69038 1.51489,2.65105 0.83319,0.96068 1.51489,2.20581 1.51489,2.76695 0,0.56114 0.28629,1.02027 0.6362,1.02027 0.34992,0 1.08617,1.3634 1.63613,3.02977 0.54995,1.66638 1.25912,3.02977 1.57593,3.02977 0.31682,0 0.80062,1.02255 1.07512,2.27233 0.27449,1.24978 0.7583,2.27233 1.07511,2.27233 0.31681,0 1.02598,1.3634 1.57594,3.02977 0.54995,1.66638 1.27076,3.02978 1.6018,3.02978 0.33103,0 0.82569,1.19297 1.09922,2.65105 0.27354,1.45807 0.76876,2.65105 1.10049,2.65105 0.33173,0 1.03994,1.70424 1.57379,3.78721 0.53384,2.08297 1.2316,3.78722 1.55056,3.78722 0.31896,0 0.80373,1.19297 1.07727,2.65105 0.27353,1.45808 0.7559,2.65105 1.07194,2.65105 0.31603,0 0.97481,2.03427 1.46397,4.52059 0.48915,2.48632 1.18553,4.70363 1.54752,4.92735 0.36198,0.22371 0.8882,1.76837 1.16937,3.43256 0.28116,1.6642 0.78281,3.02581 1.11479,3.02581 0.33198,0 0.84788,1.95988 1.14647,4.35529 0.29858,2.39542 0.83293,4.53583 1.18743,4.75647 0.35451,0.22065 1.06299,3.54393 1.5744,7.38507 0.51141,3.84115 1.20931,6.9839 1.55089,6.9839 0.34158,0 0.62105,1.02255 0.62105,2.27233 0,2.19799 0.11485,2.27233 3.511,2.27233 2.79103,0 3.87828,0.39631 5.3021,1.93263 l 1.7911,1.93263 -0.0239,36.12889 -0.0239,36.12888 -1.83334,2.08297 c -1.49473,1.69825 -2.46958,2.08297 -5.27816,2.08297 -3.16952,0 -3.44483,0.15134 -3.44483,1.89361 0,1.04148 -0.28573,1.8936 -0.63496,1.8936 -0.34923,0 -1.06934,3.4085 -1.60024,7.57443 -0.53091,4.16594 -1.22844,7.57444 -1.55009,7.57444 -0.32165,0 -0.81904,1.87467 -1.10531,4.16593 -0.28628,2.29127 -0.81594,4.16594 -1.17703,4.16594 -0.3611,0 -0.88717,1.53801 -1.16906,3.41781 -0.2819,1.87979 -0.79092,3.58985 -1.13115,3.80013 -0.34024,0.21027 -1.03684,2.25118 -1.54802,4.53534 -0.51118,2.28416 -1.21601,4.15302 -1.56632,4.15302 -0.3503,0 -0.63691,0.70411 -0.63691,1.56468 0,0.86058 -0.41593,2.30919 -0.92429,3.21914 -1.34197,2.40208 -2.83832,6.74816 -2.85152,8.28208 -0.006,0.72904 -0.28133,1.32552 -0.61123,1.32552 -0.635,0 -4.70228,8.39684 -4.70228,9.70778 0,0.4236 -0.25563,0.8838 -0.56808,1.02267 -0.75731,0.33658 -4.73402,8.35215 -4.73402,9.54203 0,0.51476 -0.34085,0.93593 -0.75744,0.93593 -0.41659,0 -0.75744,0.52197 -0.75744,1.15993 0,0.63797 -0.49045,1.34815 -1.08988,1.57817 -0.59943,0.23002 -1.31328,1.43533 -1.58631,2.67846 -0.27304,1.24313 -0.95474,2.4361 -1.51489,2.65105 -0.56015,0.21495 -1.23679,1.38489 -1.50365,2.59987 -0.26685,1.21498 -0.80738,2.20905 -1.20119,2.20905 -0.39381,0 -1.03999,0.85213 -1.43596,1.89361 -0.39597,1.04148 -1.06923,1.89361 -1.49614,1.89361 -0.4269,0 -0.77619,0.45912 -0.77619,1.02027 0,0.56114 -0.6817,1.80627 -1.51488,2.76694 -1.90215,2.1932 -1.90518,3.19922 -0.0149,4.90998 1.68401,1.524 2.67991,5.53582 1.94727,7.84419 -0.63173,1.99036 -49.29826,50.65689 -51.28862,51.28862 -2.30838,0.73264 -6.32019,-0.26326 -7.84419,-1.94727 -1.72972,-1.91132 -3.46806,-1.90629 -5.11295,0.0149 -0.7134,0.83318 -1.8117,1.51488 -2.44066,1.51488 -0.62898,0 -1.14358,0.34929 -1.14358,0.77619 0,0.42691 -0.85213,1.10017 -1.89361,1.49614 -1.04148,0.39597 -1.89361,1.04215 -1.89361,1.43596 0,0.39381 -0.99407,0.93434 -2.20905,1.20119 -1.21498,0.26686 -2.38492,0.9435 -2.59987,1.50365 -0.21495,0.56015 -1.40792,1.24185 -2.65105,1.51489 -1.24313,0.27303 -2.44844,0.98688 -2.67846,1.58631 -0.22999,0.5994 -0.94017,1.08985 -1.57814,1.08985 -0.63796,0 -1.15993,0.34085 -1.15993,0.75744 0,0.41659 -0.42117,0.75744 -0.93593,0.75744 -1.18988,0 -9.20545,3.97671 -9.54203,4.73402 -0.13887,0.31245 -0.65014,0.5712 -1.13617,0.57501 -0.48602,0.004 -2.58793,0.84527 -4.6709,1.86992 -2.08297,1.02465 -4.3837,1.87366 -5.11274,1.88668 -0.72904,0.013 -1.32552,0.30998 -1.32552,0.6599 0,0.34991 -1.44861,1.09624 -3.21914,1.65849 -1.77052,0.56226 -3.89146,1.46894 -4.71319,2.01485 -0.82173,0.5459 -2.27034,0.99255 -3.21914,0.99255 -0.94878,0 -1.72507,0.28661 -1.72507,0.63691 0,0.35031 -1.86886,1.05514 -4.15302,1.56632 -2.28416,0.51118 -4.32507,1.20778 -4.53534,1.54802 -0.21028,0.34023 -1.92034,0.84925 -3.80013,1.13115 -1.8798,0.28189 -3.41781,0.80796 -3.41781,1.16906 0,0.36109 -1.87467,0.89075 -4.16594,1.17703 -2.29126,0.28627 -4.16593,0.78366 -4.16593,1.10531 0,0.32165 -3.4085,1.01918 -7.57444,1.55009 -4.16593,0.5309 -7.57443,1.25101 -7.57443,1.60024 0,0.34923 -0.85212,0.63496 -1.8936,0.63496 -1.74227,0 -1.89361,0.27531 -1.89361,3.44483 0,2.80858 -0.38472,3.78343 -2.08297,5.27816 l -2.08297,1.83334 -36.35727,-0.056 -36.35727,-0.056 -1.70424,-1.70406 z m 58.8912,-13.62364 c 0,-0.60284 -0.85213,-2.69871 -1.89361,-4.65747 -1.04148,-1.95876 -1.89361,-3.99349 -1.89361,-4.52162 0,-0.52813 -0.25947,-1.07384 -0.5766,-1.21271 -0.74224,-0.32501 -6.99783,-12.95945 -6.99783,-14.13354 0,-0.48899 -0.33436,-0.88908 -0.74301,-0.88908 -0.40866,0 -0.95688,-0.85213 -1.21828,-1.89361 -0.2614,-1.04148 -0.73487,-1.89361 -1.05216,-1.89361 -0.31728,0 -1.00633,-1.53382 -1.53121,-3.40849 -0.52488,-1.87467 -1.23543,-3.4085 -1.579,-3.4085 -0.34358,0 -0.84849,-1.19297 -1.12202,-2.65105 -0.35991,-1.91846 -0.89267,-2.65105 -1.92793,-2.65105 -0.78683,0 -1.43165,0.42606 -1.43293,0.94681 -0.002,0.52074 -1.19426,3.3132 -2.65105,6.20548 -1.45679,2.89226 -2.64871,5.70427 -2.64871,6.2489 0,0.54463 -0.33436,0.99023 -0.74302,0.99023 -0.40865,0 -0.95688,0.85212 -1.21828,1.89361 -0.26139,1.04148 -0.73486,1.89361 -1.05215,1.89361 -0.31729,0 -1.00633,1.53382 -1.53121,3.40849 -0.52488,1.87467 -1.24438,3.40849 -1.5989,3.40849 -0.35451,0 -0.85844,0.85213 -1.11984,1.89361 -0.26139,1.04149 -0.73486,1.89361 -1.05216,1.89361 -0.31728,0 -1.00633,1.53382 -1.5312,3.40849 -0.52488,1.87468 -1.21393,3.4085 -1.53121,3.4085 -0.3173,0 -0.79077,0.85212 -1.05216,1.89361 -0.2614,1.04148 -0.80962,1.8936 -1.21828,1.8936 -0.40865,0 -0.74301,0.6817 -0.74301,1.51489 0,1.47816 0.50496,1.51489 20.82968,1.51489 17.6718,0 20.82969,-0.16618 20.82969,-1.09609 z m -52.48305,-11.023 c 0.21789,-0.83319 0.6427,-1.51489 0.94402,-1.51489 0.30133,0 0.99783,-1.3634 1.54778,-3.02977 0.54996,-1.66638 1.25913,-3.02977 1.57594,-3.02977 0.31681,0 0.80062,-1.02255 1.07511,-2.27233 0.2745,-1.24979 0.75891,-2.27233 1.07646,-2.27233 0.31755,0 0.98585,-1.3634 1.4851,-3.02978 0.49926,-1.66637 1.23492,-3.02977 1.63478,-3.02977 0.39987,0 0.72704,-0.51127 0.72704,-1.13616 0,-0.84161 -0.88368,-1.13617 -3.40849,-1.13617 -1.87467,0 -3.40849,-0.28071 -3.40849,-0.62379 0,-0.34309 -3.74935,-1.06968 -8.33188,-1.61463 -4.58253,-0.54497 -8.33187,-1.2429 -8.33187,-1.55096 0,-0.30806 -1.78094,-0.79636 -3.95764,-1.08511 -2.1767,-0.28875 -4.30701,-0.78762 -4.73402,-1.1086 -0.42701,-0.32099 -2.82148,-1.01871 -5.32104,-1.55051 -2.49956,-0.5318 -4.88551,-1.23932 -5.3021,-1.57225 -0.41659,-0.33294 -2.03563,-0.84421 -3.59786,-1.13614 -1.56222,-0.29194 -2.84041,-0.80928 -2.84041,-1.14963 0,-0.34035 -1.87467,-1.03836 -4.16593,-1.55112 -2.29127,-0.51276 -4.16594,-1.19183 -4.16594,-1.50902 0,-0.3172 -1.02255,-0.80132 -2.27233,-1.07582 -1.24978,-0.2745 -2.27233,-0.74439 -2.27233,-1.04419 0,-0.66259 -4.53636,-2.3643 -6.30268,-2.3643 -0.69946,0 -1.27175,-0.34085 -1.27175,-0.75745 0,-0.41659 -0.52197,-0.75744 -1.15993,-0.75744 -0.63798,0 -1.34815,-0.49045 -1.57817,-1.08988 -0.23002,-0.59943 -1.4123,-1.30822 -2.62728,-1.57507 -1.21498,-0.26686 -2.20905,-0.78527 -2.20905,-1.15204 0,-0.36678 -1.3634,-1.07534 -3.02977,-1.5746 -1.66638,-0.49926 -3.02978,-1.17604 -3.02978,-1.50396 0,-0.55626 -1.40673,-1.45135 -6.05954,-3.85562 -2.09742,-1.08381 -2.37564,-1.27638 -5.79017,-4.00756 -1.30991,-1.04776 -2.75852,-1.90502 -3.21913,-1.90502 -0.4606,0 -0.83746,-0.31788 -0.83746,-0.7064 0,-0.38852 -0.59649,-0.8989 -1.32553,-1.13419 -0.72904,-0.23528 -2.41479,-1.45122 -3.74614,-2.70209 -2.63088,-2.47188 -4.77509,-2.96429 -4.77509,-1.09659 0,0.64775 -0.64381,2.60764 -1.43068,4.3553 -0.78688,1.74767 -1.66897,4.62619 -1.96019,6.39671 -0.29123,1.77053 -0.80246,3.21914 -1.13607,3.21914 -0.33361,0 -0.84543,1.27818 -1.13737,2.84041 -0.29194,1.56222 -0.90444,3.29245 -1.36111,3.84494 -0.86372,1.04494 0.35828,2.36755 2.21036,2.39237 0.47617,0.006 1.05316,0.49992 1.28218,1.09676 0.42495,1.1074 8.3254,6.48926 9.52609,6.48926 0.36394,0 0.85789,0.51128 1.09769,1.13617 0.23979,0.62489 0.95795,1.13616 1.59593,1.13616 0.63796,0 1.15993,0.27723 1.15993,0.61607 0,0.33884 1.19297,1.08416 2.65105,1.65626 1.45808,0.57211 2.65105,1.31742 2.65105,1.65626 0,0.33884 0.46954,0.61607 1.04342,0.61607 0.57388,0 1.45327,0.49384 1.9542,1.09742 0.50093,0.60358 2.1617,1.50509 3.6906,2.00337 1.5289,0.49828 2.95024,1.11565 3.15854,1.37194 0.63411,0.78021 8.66842,4.61659 9.66827,4.61659 0.51477,0 0.93593,0.30291 0.93593,0.67315 0,0.37023 1.19298,0.89694 2.65105,1.17048 1.45808,0.27354 2.65106,0.78875 2.65106,1.14491 0,0.35617 1.70424,1.05642 3.78721,1.55612 2.08297,0.49969 3.78722,1.18543 3.78722,1.52385 0,0.33843 1.36339,0.84566 3.02977,1.1272 1.66637,0.28153 3.02977,0.80188 3.02977,1.15633 0,0.35445 1.53382,0.87446 3.4085,1.15559 1.87467,0.28112 3.40849,0.78233 3.40849,1.11379 0,0.33146 2.38594,1.02904 5.3021,1.55019 2.91616,0.52114 5.3021,1.20927 5.3021,1.52917 0,0.3199 1.95989,0.81864 4.3553,1.10832 2.39541,0.28968 4.71264,0.81019 5.1494,1.15669 0.92565,0.73435 9.09711,1.98408 13.85759,2.11935 2.69675,0.0766 3.36148,-0.17969 3.68619,-1.42139 z m 74.45204,0.71218 c 3.52091,-0.44148 6.57961,-1.08219 6.79711,-1.42379 0.2175,-0.3416 2.52577,-0.86598 5.12948,-1.16528 2.60371,-0.2993 4.73402,-0.81515 4.73402,-1.14633 0,-0.33117 2.08287,-0.96902 4.62862,-1.41745 2.54574,-0.44842 5.0169,-1.13604 5.49146,-1.52804 0.47456,-0.392 2.14103,-0.95158 3.70325,-1.24352 1.56223,-0.29194 2.84041,-0.79502 2.84041,-1.11794 0,-0.32293 1.53383,-0.81716 3.4085,-1.09828 1.87467,-0.28113 3.40849,-0.7971 3.40849,-1.14662 0,-0.34951 1.70425,-1.04433 3.78722,-1.54402 2.08297,-0.4997 3.78721,-1.19995 3.78721,-1.55612 0,-0.35616 1.19298,-0.87137 2.65105,-1.14491 1.45808,-0.27354 2.65105,-0.7457 2.65105,-1.04925 0,-0.30355 1.3634,-1.00187 3.02978,-1.55182 1.66637,-0.54996 3.02977,-1.25913 3.02977,-1.57594 0,-0.31682 1.02255,-0.80062 2.27233,-1.07512 1.24978,-0.27449 2.27233,-0.74438 2.27233,-1.04418 0,-0.29981 1.19297,-0.97648 2.65105,-1.50373 1.45808,-0.52725 2.65105,-1.27742 2.65105,-1.66705 0,-0.38963 0.36659,-0.70842 0.81465,-0.70842 1.07247,0 11.60988,-6.13049 11.93564,-6.94396 0.13887,-0.34676 0.61797,-0.63047 1.06467,-0.63047 0.4467,0 1.92938,-0.85212 3.29484,-1.8936 1.36546,-1.04149 2.69209,-1.89361 2.94807,-1.89361 0.25599,0 1.21606,-0.79231 2.13351,-1.76069 0.91744,-0.96837 2.29171,-1.99064 3.05392,-2.2717 1.12149,-0.41354 1.28395,-0.98073 0.85164,-2.97333 -0.2938,-1.35428 -0.80094,-2.63353 -1.12696,-2.84278 -0.32602,-0.20925 -0.83241,-1.65786 -1.1253,-3.21913 -0.2929,-1.56127 -0.77292,-2.83868 -1.06672,-2.83868 -0.29381,0 -0.97457,-2.21552 -1.51281,-4.92338 -0.53823,-2.70786 -1.28246,-4.92338 -1.65384,-4.92338 -0.37138,0 -0.67523,-0.51127 -0.67523,-1.13616 0,-0.62489 -0.15095,-1.13617 -0.33543,-1.13617 -0.8871,0 -5.72412,3.26351 -5.72412,3.86204 0,0.37544 -0.52197,0.68262 -1.15993,0.68262 -0.63797,0 -1.347,0.48746 -1.57562,1.08324 -0.22862,0.59578 -1.4109,1.43017 -2.62727,1.8542 -1.21639,0.42404 -2.21161,1.12955 -2.21161,1.56782 0,0.43826 -0.52197,0.79684 -1.15993,0.79684 -0.63797,0 -1.33386,0.45323 -1.54643,1.00717 -0.21257,0.55394 -1.56526,1.46968 -3.006,2.03498 -1.44074,0.5653 -2.61951,1.30505 -2.61951,1.64389 0,0.33883 -0.49434,0.61607 -1.09853,0.61607 -0.60419,0 -1.3711,0.46306 -1.70425,1.02903 -0.33314,0.56597 -1.85663,1.43553 -3.38554,1.93235 -1.5289,0.49683 -3.18967,1.39716 -3.6906,2.00074 -0.50092,0.60358 -1.38032,1.09742 -1.95419,1.09742 -0.57389,0 -1.04343,0.31377 -1.04343,0.69726 0,0.38349 -1.02254,0.92185 -2.27233,1.19635 -1.24978,0.27449 -2.27232,0.78577 -2.27232,1.13616 0,0.3504 -1.10777,0.87733 -2.46169,1.17097 -2.64525,0.5737 -8.35899,3.38736 -8.77372,4.32049 -0.13887,0.31245 -0.82057,0.57322 -1.51488,0.57949 -1.29561,0.0117 -5.96909,1.52274 -7.32196,2.36735 -0.41659,0.26008 -1.95041,0.7262 -3.40849,1.03582 -1.45808,0.30963 -2.83175,0.84507 -3.05262,1.18988 -0.22086,0.34481 -2.69202,1.06142 -5.49146,1.59247 -2.79944,0.53104 -5.0899,1.18938 -5.0899,1.46297 0,0.27359 -1.87467,0.73165 -4.16593,1.01793 -2.29127,0.28627 -4.16594,0.79848 -4.16594,1.13823 0,0.33975 -3.49371,1.01297 -7.76379,1.49605 -4.27009,0.48308 -8.35565,1.20312 -9.07904,1.6001 -0.72339,0.39697 -2.51285,0.72177 -3.97658,0.72177 -1.46373,0 -2.66133,0.23144 -2.66133,0.51431 0,1.15137 1.85603,5.54524 2.34238,5.54524 0.28775,0 0.75757,0.93392 1.04406,2.07538 0.28649,1.14146 0.75294,2.24922 1.03658,2.46169 0.76932,0.5763 4.6663,8.6042 4.6663,9.61274 0,1.859 2.48341,2.06742 11.36479,0.95379 z m -55.29553,-39.60449 c 1.24925,-2.64406 2.27137,-5.20043 2.27137,-5.68083 0,-0.4804 0.27572,-0.87345 0.61272,-0.87345 0.337,0 1.41767,-1.79042 2.4015,-3.97872 1.3558,-3.01563 2.4593,-4.29905 4.55881,-5.3021 3.08145,-1.47217 4.54606,-1.67388 4.54606,-0.62613 0,0.3835 1.02255,0.92186 2.27233,1.19635 1.24978,0.2745 2.27233,0.89318 2.27233,1.37484 0,0.96533 3.86903,9.00423 4.62426,9.60809 0.26052,0.2083 0.72889,1.23084 1.04084,2.27233 1.25105,4.17686 3.46386,6.81699 5.71362,6.81699 1.19122,0 2.34488,-0.28968 2.5637,-0.64374 0.21882,-0.35405 3.36464,-0.87178 6.99072,-1.1505 3.62607,-0.27872 6.96086,-0.79976 7.41064,-1.15787 0.44977,-0.35812 3.11851,-0.89007 5.93052,-1.18212 2.81201,-0.29206 5.11274,-0.79796 5.11274,-1.12425 0,-0.32627 2.55637,-1.00562 5.68082,-1.50964 3.12446,-0.50403 5.68083,-1.19456 5.68083,-1.53451 0,-0.33996 1.27818,-0.85696 2.84041,-1.1489 1.56222,-0.29193 3.18126,-0.79722 3.59785,-1.12286 0.4166,-0.32564 2.5469,-1.04128 4.73402,-1.59031 2.18712,-0.54902 3.97658,-1.23671 3.97658,-1.52818 0,-0.29147 1.19297,-0.75375 2.65105,-1.02729 1.45808,-0.27353 2.65105,-0.76819 2.65105,-1.09922 0,-0.33104 1.3634,-1.05185 3.02977,-1.6018 1.66638,-0.54996 3.02977,-1.25913 3.02977,-1.57594 0,-0.31682 1.02255,-0.80062 2.27233,-1.07512 1.24978,-0.27449 2.27233,-0.74438 2.27233,-1.04418 0,-0.29981 1.27819,-1.00246 2.84041,-1.56145 1.56223,-0.55899 3.01084,-1.22395 3.21914,-1.47769 0.62082,-0.75625 3.26577,-2.34855 5.49146,-3.30594 1.14563,-0.49281 2.08297,-1.12077 2.08297,-1.3955 0,-0.27472 1.02255,-0.92304 2.27233,-1.44072 1.24978,-0.51767 2.27233,-1.24073 2.27233,-1.60678 0,-0.36605 0.52197,-0.66555 1.15993,-0.66555 0.63797,0 1.35613,-0.51127 1.59593,-1.13616 0.23979,-0.62489 0.84652,-1.13617 1.34829,-1.13617 0.50176,0 1.64401,-0.68169 2.53834,-1.51488 0.89432,-0.83319 1.96915,-1.51489 2.3885,-1.51489 0.41936,0 1.1273,-0.6817 1.57321,-1.51488 0.44591,-0.83319 1.25526,-1.51489 1.79856,-1.51489 1.48896,0 5.77587,-5.04466 5.77587,-6.7968 0,-0.84429 -0.2965,-1.53507 -0.65889,-1.53507 -0.3624,0 -1.05912,-2.03427 -1.54827,-4.52059 -0.48915,-2.48632 -1.18554,-4.70363 -1.54753,-4.92735 -0.36198,-0.22372 -0.88819,-1.76837 -1.16936,-3.43257 -0.28117,-1.66419 -0.82209,-3.0258 -1.20207,-3.0258 -0.37997,0 -0.69087,-0.51127 -0.69087,-1.13616 0,-0.62489 0.31377,-1.13617 0.69726,-1.13617 0.38349,0 0.91698,-1.00034 1.18551,-2.22298 0.36676,-1.66981 1.04143,-2.34448 2.71124,-2.71124 1.22264,-0.26853 2.22298,-0.80202 2.22298,-1.18551 0,-0.38349 0.51128,-0.69726 1.13617,-0.69726 0.62489,0 1.13616,0.3109 1.13616,0.69087 0,0.37998 1.36161,0.9209 3.0258,1.20207 1.6642,0.28117 3.20885,0.80738 3.43257,1.16936 0.22372,0.36199 2.44103,1.05838 4.92735,1.54753 2.48632,0.48915 4.52059,1.18587 4.52059,1.54827 0,0.36239 0.69078,0.65889 1.53507,0.65889 1.6062,0 6.7968,-4.23507 6.7968,-5.5456 0,-0.41665 0.94447,-1.64006 2.09881,-2.71871 1.15435,-1.07864 2.60241,-2.98372 3.2179,-4.2335 0.6155,-1.24978 1.5457,-2.5449 2.06713,-2.87805 0.52142,-0.33314 0.94803,-1.10006 0.94803,-1.70425 0,-0.60419 0.2995,-1.09852 0.66555,-1.09852 0.36605,0 1.08911,-1.02255 1.60678,-2.27233 0.51768,-1.24978 1.24073,-2.27233 1.60678,-2.27233 0.36605,0 0.66555,-0.52197 0.66555,-1.15993 0,-0.63798 0.49045,-1.34815 1.08988,-1.57817 0.59943,-0.23003 1.30822,-1.4123 1.57507,-2.62728 0.26686,-1.21498 0.76201,-2.20905 1.10034,-2.20905 0.33833,0 0.82303,-0.82829 1.07711,-1.84064 0.25409,-1.01236 0.88753,-2.30698 1.40764,-2.87694 1.58609,-1.73809 4.13332,-6.88043 4.69808,-9.48448 0.29364,-1.35393 0.83221,-2.46169 1.19683,-2.46169 0.36462,0 0.88675,-1.19297 1.16028,-2.65105 0.27354,-1.45808 0.76626,-2.65105 1.09494,-2.65105 0.32868,0 1.02104,-1.78946 1.53858,-3.97658 0.51754,-2.18712 1.40365,-4.6489 1.96915,-5.47064 0.5655,-0.82173 1.02818,-2.44076 1.02818,-3.59785 0,-1.15709 0.31005,-2.10379 0.68901,-2.10379 0.37895,0 1.09144,-2.38595 1.58332,-5.30211 0.49188,-2.91615 1.16977,-5.3021 1.50645,-5.3021 0.33667,0 0.85174,-2.38594 1.1446,-5.3021 0.29286,-2.91615 0.81141,-5.3021 1.15234,-5.3021 0.34092,0 0.86203,-3.41583 1.15801,-7.59075 0.296,-4.17491 0.83458,-7.77395 1.19688,-7.99785 0.36229,-0.22391 0.65871,-1.38174 0.65871,-2.57296 0,-2.24976 -2.64013,-4.46257 -6.81699,-5.71362 -1.04149,-0.31195 -2.06403,-0.78032 -2.27233,-1.04084 -0.60386,-0.75523 -8.64276,-4.62426 -9.60809,-4.62426 -0.48166,0 -1.10034,-1.02255 -1.37484,-2.27233 -0.27449,-1.24978 -0.81285,-2.27233 -1.19635,-2.27233 -1.04775,0 -0.84604,-1.46461 0.62613,-4.54606 1.00305,-2.09951 2.28647,-3.20301 5.3021,-4.55881 2.1883,-0.98383 3.97872,-2.0645 3.97872,-2.4015 0,-0.337 0.39305,-0.61272 0.87345,-0.61272 0.4804,0 3.03677,-1.02212 5.68083,-2.27137 4.33955,-2.05034 4.80737,-2.4936 4.80737,-4.55494 0,-1.25596 -0.32545,-2.87542 -0.72321,-3.59881 -0.39776,-0.72339 -0.93963,-4.29768 -1.20416,-7.94287 -0.26452,-3.6452 -0.7515,-6.62763 -1.08216,-6.62763 -0.33067,0 -0.83847,-2.21552 -1.12846,-4.92338 -0.28999,-2.70786 -0.7745,-4.92338 -1.0767,-4.92338 -0.3022,0 -0.9778,-2.54926 -1.50134,-5.66501 -0.52354,-3.11576 -1.24205,-5.84434 -1.59668,-6.06351 -0.35464,-0.21918 -0.87484,-1.76012 -1.15601,-3.42431 -0.28116,-1.6642 -0.76765,-3.02581 -1.08109,-3.02581 -0.31344,0 -1.01961,-1.87467 -1.56928,-4.16593 -0.54967,-2.29127 -1.27036,-4.16594 -1.60154,-4.16594 -0.33118,0 -0.82595,-1.19297 -1.09949,-2.65105 -0.27353,-1.45808 -0.80025,-2.65105 -1.17048,-2.65105 -0.37023,0 -0.67315,-0.37499 -0.67315,-0.83331 0,-1.35648 -4.04947,-9.7709 -4.70228,-9.7709 -0.3299,0 -0.59982,-0.39317 -0.59982,-0.87371 0,-1.44633 -3.78026,-8.97305 -4.50667,-8.97305 -0.37129,0 -0.89966,-1.02254 -1.17416,-2.27232 -0.27449,-1.24979 -0.82128,-2.27233 -1.21509,-2.27233 -0.39381,0 -1.03999,-0.85213 -1.43596,-1.89361 -0.39597,-1.04149 -1.06923,-1.89361 -1.49614,-1.89361 -0.4269,0 -0.77619,-0.31026 -0.77619,-0.68947 0,-1.04629 -3.9681,-6.88496 -4.6792,-6.88496 -0.34259,0 -0.6229,-0.52197 -0.6229,-1.15993 0,-0.63798 -0.4983,-1.35116 -1.10733,-1.58487 -0.60903,-0.2337 -1.33551,-1.16034 -1.6144,-2.05919 -0.27888,-0.89885 -1.57004,-2.5984 -2.86924,-3.77677 -2.03943,-1.84976 -2.77305,-2.07776 -5.36925,-1.66865 -1.65389,0.26062 -3.18772,0.73454 -3.4085,1.05316 -0.22078,0.31862 -2.44651,1.02535 -4.94608,1.5705 -2.49956,0.54516 -4.76157,1.33367 -5.02669,1.75226 -0.71212,1.12434 -6.90981,1.11913 -7.2849,-0.006 -0.17185,-0.51562 -0.78883,-0.93744 -1.37107,-0.93744 -0.58224,0 -1.27248,-0.85212 -1.53388,-1.89361 -0.2614,-1.04148 -0.77916,-1.8936 -1.1506,-1.8936 -0.37143,0 -0.67533,-0.51128 -0.67533,-1.13617 0,-0.62489 0.31997,-1.13616 0.71104,-1.13616 0.39107,0 0.94104,-1.53383 1.22216,-3.4085 0.28113,-1.87467 0.76671,-3.40849 1.07908,-3.40849 0.31237,0 1.00194,-2.0451 1.53238,-4.54466 0.53045,-2.49956 1.25872,-4.54466 1.61839,-4.54466 0.35967,0 0.65394,-0.86361 0.65394,-1.91913 0,-1.83062 -3.76557,-6.41274 -5.26995,-6.41274 -0.37018,0 -1.80704,-1.05183 -3.19302,-2.337396 -4.46517,-4.141691 -4.90466,-4.479594 -5.8264,-4.479594 -0.49887,0 -1.09143,-0.480514 -1.31679,-1.067805 -0.22537,-0.587299 -1.23721,-1.275489 -2.24856,-1.529316 -1.01134,-0.253834 -1.8388,-0.754519 -1.8388,-1.112631 0,-0.358119 -1.10776,-1.105935 -2.46169,-1.661815 -2.34251,-0.961771 -3.18752,-1.501472 -5.3562,-3.420946 -0.52158,-0.461646 -2.214,-1.29703 -3.76093,-1.85641 -1.54693,-0.559371 -2.8126,-1.262339 -2.8126,-1.562143 0,-0.299803 -1.02255,-0.769691 -2.27233,-1.044188 -1.24978,-0.274498 -2.27233,-0.758905 -2.27233,-1.076456 0,-0.31755 -1.36339,-0.98585 -3.02977,-1.485103 -1.66637,-0.499261 -3.02977,-1.197965 -3.02977,-1.552668 0,-0.35471 -0.93734,-0.864075 -2.08297,-1.131915 -1.97666,-0.462131 -4.72267,-1.596372 -9.53151,-3.936994 -1.18054,-0.574608 -3.48127,-1.258191 -5.11274,-1.519073 -1.63147,-0.260882 -2.9663,-0.741657 -2.9663,-1.068389 0,-0.326732 -1.36161,-0.824101 -3.02581,-1.105264 -1.66419,-0.281163 -3.1925,-0.780943 -3.39626,-1.110622 -0.20375,-0.329678 -3.10276,-1.043132 -6.44223,-1.585452 -3.33948,-0.542321 -6.07178,-1.236393 -6.07178,-1.542383 0,-0.305989 -2.64158,-0.800505 -5.87018,-1.098924 -3.2286,-0.298419 -6.04061,-0.792078 -6.24891,-1.097021 -0.2083,-0.304942 -3.53158,-0.79715 -7.38507,-1.093794 -6.09961,-0.469553 -7.00635,-0.384956 -7.00635,0.653674 0,0.656165 -0.28629,1.193028 -0.6362,1.193028 -0.34992,0 -1.08617,1.363398 -1.63613,3.029772 -0.54995,1.666375 -1.25912,3.029773 -1.57593,3.029773 -0.31682,0 -0.80062,1.022548 -1.07512,2.272329 -0.27449,1.249781 -0.7759,2.272329 -1.11423,2.272329 -0.33833,0 -0.84608,0.920074 -1.12831,2.044612 -0.82783,3.298309 -4.11174,5.849362 -7.54683,5.862632 -1.68445,0.0068 -3.10666,-0.391318 -3.28226,-0.918112 -0.17043,-0.511274 -0.78624,-0.929587 -1.36847,-0.929587 -0.58224,0 -1.27249,-0.852123 -1.53389,-1.893608 -0.26139,-1.041484 -0.75208,-1.893607 -1.09041,-1.893607 -0.33833,0 -0.83973,-1.022549 -1.11423,-2.27233 -0.2745,-1.249781 -0.7583,-2.272329 -1.07512,-2.272329 -0.3168,0 -1.02598,-1.363398 -1.57593,-3.029772 -0.54996,-1.666375 -1.25913,-3.029773 -1.57594,-3.029773 -0.31681,0 -0.80705,-1.051844 -1.08941,-2.337433 l -0.51339,-2.337433 -7.31058,0.541149 c -4.02083,0.297633 -7.48102,0.797367 -7.68932,1.11052 -0.20829,0.313155 -2.84988,0.815226 -5.87018,1.115715 -3.02031,0.30049 -5.49146,0.793627 -5.49146,1.095861 0,0.6114 -10.42763,2.339339 -14.07003,2.331513 -3.27695,-0.007 -5.96779,-3.03348 -5.96779,-6.712098 0,-3.885786 2.84443,-6.898401 7.04528,-7.461853 1.73018,-0.232066 3.14578,-0.693381 3.14578,-1.025146 0,-0.331764 1.95988,-0.840217 4.35529,-1.129895 2.39542,-0.289678 4.69615,-0.786702 5.11275,-1.1045 0.41659,-0.317797 4.93284,-1.020878 10.03612,-1.562403 6.65897,-0.706605 9.27867,-1.265566 9.27867,-1.979775 0,-0.547352 -0.34085,-0.995185 -0.75744,-0.995185 -0.41659,0 -0.75744,-0.42117 -0.75744,-0.935933 0,-1.189878 -3.97671,-9.205447 -4.73402,-9.54203 -0.31245,-0.138865 -0.56808,-0.645247 -0.56808,-1.125294 0,-0.480046 -0.90786,-2.667163 -2.01747,-4.860259 -1.96739,-3.888473 -2.09899,-3.987448 -5.3021,-3.987448 -1.80655,0 -3.28464,0.275922 -3.28464,0.613159 0,0.337236 -3.57892,1.067857 -7.95315,1.623601 -4.37423,0.555743 -7.95315,1.270386 -7.95315,1.588094 0,0.317708 -1.70425,0.812045 -3.78722,1.098526 -2.08297,0.286482 -3.78721,0.767208 -3.78721,1.068282 0,0.301074 -2.21866,0.988405 -4.93034,1.527403 -2.7117,0.538997 -5.09942,1.25357 -5.30607,1.587939 -0.20666,0.334368 -1.73734,0.837985 -3.40154,1.119148 -1.66419,0.281164 -3.0258,0.767657 -3.0258,1.081097 0,0.31344 -1.87467,1.019618 -4.16594,1.569284 -2.29126,0.549666 -4.16594,1.258721 -4.16594,1.575678 0,0.316957 -1.02254,0.800874 -2.27232,1.075373 -1.24979,0.274498 -2.27233,0.812854 -2.27233,1.196347 0,0.383493 -0.59649,0.69444 -1.32553,0.690992 -1.33302,-0.0063 -13.86709,5.951466 -14.58837,6.934233 -0.21247,0.289499 -1.34775,0.767669 -2.52286,1.062601 -1.1751,0.294933 -2.30793,0.982827 -2.51738,1.528655 -0.20945,0.545827 -1.34642,1.204494 -2.5266,1.463704 -1.18018,0.259211 -2.32165,0.929596 -2.53659,1.489748 -0.21495,0.56015 -1.40792,1.241849 -2.65105,1.514886 -1.24313,0.273036 -2.44844,0.986876 -2.67847,1.58631 -0.23002,0.599434 -0.94019,1.089879 -1.57816,1.089879 -0.63796,0 -1.15993,0.349286 -1.15993,0.776191 0,0.426905 -0.76691,1.123239 -1.70425,1.54741 -3.33286,1.508212 -5.37814,2.883618 -6.03594,4.059022 -0.36682,0.655495 -1.11956,1.191808 -1.67275,1.191808 -1.54064,0 -3.18775,2.264003 -2.12497,2.92084 0.47437,0.293179 1.09251,1.971448 1.37363,3.729487 0.28112,1.758042 0.76184,3.196434 1.06826,3.196434 0.30644,0 0.99114,2.045096 1.52159,4.544658 0.53044,2.499562 1.24327,4.544659 1.58406,4.544659 0.34079,0 0.84343,1.192973 1.11696,2.651051 0.5808,3.095919 2.2619,3.478837 4.99842,1.13852 4.47395,-3.826186 5.46427,-4.547014 6.24695,-4.547014 0.46094,0 1.2638,-0.681699 1.78413,-1.514887 0.52033,-0.833187 1.45444,-1.514886 2.0758,-1.514886 0.62137,0 1.12975,-0.334358 1.12975,-0.743014 0,-0.408655 0.85213,-0.956877 1.89361,-1.218279 1.04149,-0.261393 1.89361,-0.774584 1.89361,-1.140429 0,-0.365837 1.10776,-1.174158 2.46169,-1.796268 2.68317,-1.232868 5.27298,-2.786329 5.87018,-3.521156 0.2083,-0.256296 1.14362,-0.704686 2.07849,-0.996423 0.93486,-0.291736 2.14427,-0.934163 2.68757,-1.427614 1.55212,-1.409712 6.75634,-4.032039 9.1545,-4.612804 3.6028,-0.872497 6.28946,0.152356 8.00013,3.051736 0.85803,1.454245 1.56005,3.488211 1.56005,4.519923 0,2.229372 -3.04363,5.389341 -7.22927,7.505607 -1.64792,0.833187 -3.16664,1.72113 -3.37493,1.973207 -0.2083,0.252077 -1.62964,0.865992 -3.15855,1.364269 -1.5289,0.498276 -3.18967,1.399793 -3.6906,2.003369 -0.50092,0.603583 -1.38031,1.097421 -1.95419,1.097421 -0.57389,0 -1.04342,0.277232 -1.04342,0.616066 0,0.338843 -1.17878,1.078592 -2.61952,1.643887 -1.44074,0.565302 -2.79343,1.481043 -3.006,2.034984 -0.21257,0.553941 -0.75242,1.007165 -1.19967,1.007165 -0.44725,0 -1.22486,0.335714 -1.72802,0.746028 -4.05089,3.303399 -5.74816,4.556073 -6.17308,4.556073 -0.2722,0 -1.28463,0.852124 -2.24985,1.893608 -0.96521,1.04148 -2.0578,1.89361 -2.42798,1.89361 -0.37018,0 -1.64663,1.03151 -2.83657,2.29226 -1.94134,2.05685 -2.11134,2.64024 -1.65538,5.68082 0.27948,1.86371 0.77387,3.38856 1.09865,3.38856 0.32478,0 1.02353,1.95989 1.5528,4.3553 0.52926,2.39542 1.30895,4.78379 1.73265,5.30751 0.42369,0.52372 0.80441,2.25087 0.84603,3.8381 0.10653,4.06288 -3.15732,7.32673 -7.2202,7.2202 -1.58723,-0.0416 -3.31438,-0.42234 -3.8381,-0.84603 -0.52372,-0.4237 -2.91209,-1.20339 -5.30751,-1.73265 -2.39541,-0.52927 -4.3553,-1.22802 -4.3553,-1.5528 0,-0.32478 -1.52485,-0.81917 -3.38856,-1.09865 -3.04058,-0.45596 -3.62397,-0.28596 -5.68082,1.65538 -1.26075,1.18994 -2.29226,2.46639 -2.29226,2.83657 0,0.37018 -0.85213,1.46277 -1.89361,2.42798 -1.041484,0.96522 -1.893608,1.97765 -1.893608,2.24985 0,0.2722 -0.857259,1.56666 -1.905022,2.87657 -1.047771,1.30992 -2.172718,2.72253 -2.499888,3.13912 -0.32717,0.41659 -0.822613,1.35393 -1.100974,2.08297 -0.278368,0.72904 -0.794043,1.32552 -1.145958,1.32552 -0.351916,0 -1.107927,1.19298 -1.680032,2.65105 -0.572104,1.45808 -1.31742,2.65106 -1.656263,2.65106 -0.338834,0 -0.616066,0.46953 -0.616066,1.04342 0,0.57388 -0.493838,1.45327 -1.097421,1.95419 -0.603576,0.50093 -1.505093,2.1617 -2.003369,3.6906 -0.498277,1.52891 -1.115646,2.95025 -1.371934,3.15855 -0.780212,0.6341 -4.616593,8.66842 -4.616593,9.66826 0,0.51477 -0.325405,0.93594 -0.723123,0.93594 -0.397711,0 -0.946925,1.19297 -1.220461,2.65105 -0.273535,1.45808 -0.773175,2.65105 -1.110305,2.65105 -0.337131,0 -0.855169,1.10276 -1.1512,2.45058 -0.296032,1.34782 -0.979595,3.13728 -1.519035,3.97658 -0.539439,0.8393 -1.214371,2.80418 -1.499849,4.3664 -0.285478,1.56223 -0.801082,2.84042 -1.145787,2.84042 -0.344705,0 -0.856747,1.53382 -1.137871,3.40849 -0.281124,1.87467 -0.77798,3.40849 -1.104123,3.40849 -0.326142,0 -1.024022,2.89722 -1.550842,6.43827 -0.52682,3.54105 -1.20923,6.43827 -1.516465,6.43827 -0.307236,0 -0.804464,2.47115 -1.104954,5.49146 -0.300489,3.0203 -0.80256,5.66189 -1.115715,5.87018 -0.313153,0.2083 -0.812887,3.66849 -1.11052,7.68932 l -0.541149,7.31058 2.337433,0.51339 c 1.285589,0.28236 2.337433,0.7726 2.337433,1.08941 0,0.31681 1.363398,1.02598 3.029773,1.57594 1.666374,0.54995 3.029772,1.25913 3.029772,1.57593 0,0.31682 1.022548,0.80062 2.272329,1.07512 1.249781,0.2745 2.27233,0.7759 2.27233,1.11423 0,0.33833 0.852123,0.82902 1.893607,1.09041 1.041485,0.2614 1.893608,0.95165 1.893608,1.53389 0,0.58223 0.418313,1.19804 0.929587,1.36847 0.526794,0.1756 0.924619,1.59781 0.918112,3.28226 -0.01326,3.43509 -2.564323,6.719 -5.862632,7.54683 -1.124538,0.28223 -2.044612,0.78998 -2.044612,1.12831 0,0.33833 -1.022548,0.83974 -2.272329,1.11423 -1.249781,0.2745 -2.272329,0.7583 -2.272329,1.07512 0,0.31681 -1.363398,1.02598 -3.029773,1.57593 -1.666374,0.54996 -3.029772,1.28621 -3.029772,1.63613 0,0.34991 -0.536863,0.6362 -1.193028,0.6362 -1.03863,0 -1.123227,0.90674 -0.653674,7.00635 0.296644,3.85349 0.788852,7.17677 1.093794,7.38507 0.304943,0.2083 0.798602,3.02031 1.097021,6.24891 0.298419,3.2286 0.792935,5.87018 1.098924,5.87018 0.30599,0 1.000062,2.7323 1.542383,6.07178 0.54232,3.33947 1.255774,6.23848 1.585452,6.44223 0.329679,0.20376 0.829459,1.73207 1.110622,3.39626 0.281163,1.6642 0.778532,3.02581 1.105264,3.02581 0.326732,0 0.807507,1.33483 1.068389,2.9663 0.260882,1.63147 0.944465,3.9322 1.519073,5.11274 2.340622,4.80884 3.474863,7.55485 3.936994,9.53151 0.26784,1.14563 0.777205,2.08297 1.131915,2.08297 0.354703,0 1.053407,1.3634 1.552668,3.02977 0.499253,1.66638 1.167553,3.02977 1.485103,3.02977 0.317551,0 0.801958,1.02255 1.076456,2.27233 0.274497,1.24978 0.744385,2.27233 1.044188,2.27233 0.299804,0 0.998901,1.25498 1.553554,2.78885 0.934851,2.58527 1.327919,3.23315 3.493789,5.75867 0.43419,0.50629 1.242449,2.02828 1.79614,3.38221 0.553691,1.35393 1.299712,2.46169 1.657831,2.46169 0.358112,0 0.864985,0.85212 1.126386,1.89361 0.261394,1.04148 0.789862,1.89361 1.174363,1.89361 0.384508,0 0.914241,0.59648 1.177188,1.32552 0.523628,1.45181 1.209386,2.34227 4.711409,6.11781 1.285566,1.38598 2.337396,2.82284 2.337396,3.19302 0,1.50438 4.58212,5.26995 6.41274,5.26995 1.05552,0 1.91913,-0.29427 1.91913,-0.65394 0,-0.35967 2.0451,-1.08794 4.54466,-1.61839 2.49956,-0.53044 4.54466,-1.22001 4.54466,-1.53238 0,-0.31237 1.53382,-0.79795 3.40849,-1.07908 1.87467,-0.28112 3.4085,-0.83109 3.4085,-1.22216 0,-0.39107 0.51127,-0.71104 1.13616,-0.71104 0.62489,0 1.13617,0.3039 1.13617,0.67533 0,0.37144 0.85212,0.8892 1.8936,1.1506 1.04149,0.2614 1.89361,0.95164 1.89361,1.53388 0,0.58224 0.42182,1.19922 0.93738,1.37107 1.12525,0.37509 1.13046,6.57278 0.006,7.2849 -0.41858,0.26512 -1.20709,2.52713 -1.75225,5.02669 -0.54515,2.49957 -1.25188,4.7253 -1.5705,4.94608 -0.31862,0.22078 -0.79254,1.75461 -1.05316,3.4085 -0.40911,2.5962 -0.18111,3.32982 1.66865,5.36925 1.17837,1.2992 2.87792,2.59036 3.77677,2.86924 0.89885,0.27889 1.82549,1.00537 2.05919,1.6144 0.23371,0.60903 0.94689,1.10733 1.58487,1.10733 0.63796,0 1.15993,0.28031 1.15993,0.6229 0,0.67909 5.81647,4.6792 6.80392,4.6792 0.33464,0 0.79229,0.47914 1.01701,1.06474 0.22472,0.58561 1.42568,1.28814 2.66882,1.56118 1.24313,0.27303 2.44843,0.98688 2.67846,1.58631 0.23002,0.59943 0.94019,1.08988 1.57816,1.08988 0.63796,0 1.15993,0.34084 1.15993,0.75744 0,0.41659 0.46954,0.75744 1.04343,0.75744 0.57387,0 1.45327,0.49384 1.95419,1.09742 0.50093,0.60358 2.1617,1.5051 3.6906,2.00337 1.52891,0.49828 2.95025,1.1516 3.15854,1.45183 0.51827,0.74701 8.64654,4.5367 9.73049,4.5367 0.48054,0 0.87372,0.30292 0.87372,0.67315 0,0.37023 1.19297,0.89695 2.65105,1.17048 1.45808,0.27354 2.65105,0.76831 2.65105,1.09949 0,0.33118 1.87467,1.05187 4.16594,1.60154 2.29126,0.54967 4.16593,1.25584 4.16593,1.56928 0,0.31344 1.36161,0.79993 3.02581,1.08109 1.66419,0.28117 3.20512,0.80137 3.42431,1.15601 0.21917,0.35463 2.94775,1.07314 6.06351,1.59668 3.11575,0.52354 5.66501,1.18656 5.66501,1.47338 0,0.28683 2.30073,0.76709 5.11274,1.06723 2.81201,0.30016 5.29874,0.8438 5.52608,1.2081 0.22733,0.3643 3.39171,0.89129 7.03192,1.1711 3.64022,0.27982 6.79762,0.79843 7.01643,1.15248 0.21882,0.35406 1.57114,0.64374 3.00516,0.64374 2.45899,0 2.7365,-0.27346 4.87868,-4.80737 z m -138.95218,-8.44789 c 0.28113,-1.87467 0.78333,-3.40849 1.11601,-3.40849 0.33267,0 0.8352,-1.3634 1.11673,-3.02977 0.28154,-1.66638 0.79281,-3.02978 1.13617,-3.02978 0.34335,0 0.85934,-1.39125 1.14662,-3.09167 0.28729,-1.70043 0.9971,-4.00117 1.57737,-5.11274 0.58027,-1.11159 1.26523,-3.12883 1.52214,-4.48276 0.25692,-1.35393 0.7321,-2.46169 1.05597,-2.46169 0.32387,0 0.82771,-1.27818 1.11965,-2.84041 0.29193,-1.56223 0.79195,-3.18126 1.11114,-3.59785 0.59293,-0.77388 2.31387,-7.22016 2.31387,-8.66729 0,-0.44041 -0.6817,-0.80075 -1.51489,-0.80075 -0.83319,0 -1.51488,0.29427 -1.51488,0.65394 0,0.35967 -2.0451,1.08794 -4.54466,1.61839 -2.49957,0.53044 -4.54466,1.22001 -4.54466,1.53238 0,0.31237 -1.53382,0.79795 -3.408496,1.07908 -1.874672,0.28112 -3.408494,0.80665 -3.408494,1.16784 0,0.36119 -1.874672,1.07625 -4.165937,1.58901 -2.291265,0.51276 -4.165937,1.19802 -4.165937,1.5228 0,0.32477 -1.533822,0.82051 -3.408494,1.10163 -1.874672,0.28113 -3.408494,0.76671 -3.408494,1.07908 0,0.31237 -2.045096,1.00193 -4.544658,1.53238 -3.626137,0.76952 -4.544659,1.256 -4.544659,2.40699 0,1.79096 26.362057,28.57285 28.168347,28.61695 0.942722,0.023 1.413532,-0.86517 1.790242,-3.37727 z m 319.93028,-10.34166 c 8.32515,-8.32514 13.66032,-14.22728 13.52247,-14.9595 -0.1493,-0.79302 -1.79042,-1.5759 -4.76718,-2.27413 -2.49673,-0.58563 -4.70994,-1.30972 -4.91823,-1.60909 -0.2083,-0.29936 -1.5717,-0.7969 -3.02978,-1.10565 -1.45807,-0.30874 -2.9919,-0.81819 -3.40849,-1.13212 -0.41659,-0.31394 -2.5469,-0.99028 -4.73402,-1.50297 -2.18712,-0.51271 -3.97658,-1.20908 -3.97658,-1.54751 0,-0.33842 -1.36339,-0.84566 -3.02977,-1.12719 -1.66637,-0.28154 -3.02977,-0.78577 -3.02977,-1.12053 0,-0.33476 -2.21552,-1.04904 -4.92338,-1.58727 -2.70786,-0.53824 -4.92338,-1.25693 -4.92338,-1.5971 0,-0.34017 -0.6817,-0.61848 -1.51489,-0.61848 -1.00992,0 -1.51488,0.50496 -1.51488,1.51488 0,0.83319 0.27831,1.51489 0.61848,1.51489 0.34017,0 1.05886,2.21552 1.5971,4.92338 0.53823,2.70786 1.24453,4.92338 1.56954,4.92338 0.32502,0 0.81475,1.19297 1.08828,2.65105 0.27354,1.45808 0.76851,2.65105 1.09993,2.65105 0.33143,0 1.03562,1.95989 1.56488,4.3553 0.52927,2.39541 1.23471,4.69615 1.56764,5.11274 0.33294,0.41659 0.84421,2.03563 1.13614,3.59785 0.29194,1.56223 0.80376,2.84042 1.13737,2.84042 0.33362,0 0.84965,1.44861 1.14674,3.21913 0.76823,4.5783 1.66485,6.62763 2.89973,6.62763 0.58954,0 7.25947,-6.18757 14.82205,-13.75016 z m 17.68142,-31.70509 c 0.71747,-0.83795 1.3045,-1.87119 1.3045,-2.2961 0,-0.4249 0.51127,-0.96875 1.13616,-1.20854 0.62489,-0.2398 1.13617,-0.76312 1.13617,-1.16293 0,-0.39982 0.85212,-1.84413 1.89361,-3.20959 1.04148,-1.36546 1.8936,-2.84814 1.8936,-3.29484 0,-0.4467 0.28371,-0.9258 0.63047,-1.06467 0.34676,-0.13886 2.10708,-2.80885 3.91184,-5.9333 1.80475,-3.12446 3.5181,-5.85125 3.80744,-6.05955 0.28935,-0.20829 0.98344,-1.6569 1.54243,-3.21913 0.55899,-1.56223 1.26164,-2.84041 1.56145,-2.84041 0.2998,0 0.76969,-1.02255 1.04418,-2.27233 0.2745,-1.24978 0.7583,-2.27233 1.07512,-2.27233 0.31681,0 1.02598,-1.3634 1.57594,-3.02977 0.54995,-1.66638 1.27076,-3.02978 1.6018,-3.02978 0.33103,0 0.82569,-1.19297 1.09922,-2.65105 0.27354,-1.45807 0.76626,-2.65105 1.09494,-2.65105 0.32868,0 1.00644,-1.70424 1.50614,-3.78721 0.49969,-2.08297 1.19451,-3.78722 1.54402,-3.78722 0.34952,0 0.86549,-1.53382 1.14662,-3.40849 0.28112,-1.87467 0.77535,-3.4085 1.09828,-3.4085 0.32292,0 0.80824,-1.17857 1.07848,-2.61905 0.27023,-1.44049 0.9875,-3.57079 1.59393,-4.73402 0.60643,-1.16323 1.3193,-3.734 1.58415,-5.71282 0.26486,-1.97882 0.73458,-3.59785 1.04383,-3.59785 0.30926,0 0.79853,-1.78094 1.08728,-3.95764 0.28876,-2.17671 0.81241,-4.30702 1.16369,-4.73402 0.90972,-1.10587 2.50503,-15.35883 1.96147,-17.52453 -0.24974,-0.99506 -0.86876,-1.80921 -1.37558,-1.80921 -1.04396,0 -9.06959,-3.87624 -9.66143,-4.6663 -0.21247,-0.28364 -1.32023,-0.75009 -2.46169,-1.03658 -1.14146,-0.28649 -2.07538,-0.75631 -2.07538,-1.04406 0,-0.48635 -4.39387,-2.34238 -5.54524,-2.34238 -0.28287,0 -0.51431,1.1976 -0.51431,2.66133 0,1.46373 -0.31782,3.25319 -0.70628,3.97658 -0.38844,0.72339 -1.12049,4.97938 -1.62676,9.45776 -0.50627,4.47838 -1.17172,8.14251 -1.47877,8.14251 -0.30706,0 -0.79185,1.8693 -1.0773,4.154 -0.28546,2.2847 -0.79839,4.32666 -1.13985,4.5377 -0.34146,0.21103 -1.06183,2.60235 -1.60084,5.31404 -0.53899,2.71168 -1.23123,4.93034 -1.53829,4.93034 -0.30707,0 -0.79589,1.10776 -1.08628,2.46169 -0.29039,1.35393 -0.74077,2.80254 -1.00085,3.21913 -0.86299,1.38231 -2.35577,6.03912 -2.36735,7.38507 -0.006,0.72904 -0.33681,1.32553 -0.73453,1.32553 -0.39771,0 -0.94692,1.19297 -1.22046,2.65105 -0.27353,1.45808 -0.74569,2.65105 -1.04924,2.65105 -0.30356,0 -1.00187,1.3634 -1.55183,3.02977 -0.54996,1.66638 -1.25913,3.02978 -1.57594,3.02978 -0.31681,0 -0.80062,1.02254 -1.07511,2.27232 -0.2745,1.24979 -0.81286,2.27233 -1.19635,2.27233 -0.38349,0 -0.69726,0.46531 -0.69726,1.03402 0,0.56871 -0.63481,1.8469 -1.41069,2.84041 -0.77588,0.99352 -1.66971,2.63234 -1.98628,3.64183 -0.31658,1.00948 -0.95996,2.29949 -1.42973,2.86669 -0.46977,0.5672 -1.19497,1.4455 -1.61157,1.95179 -0.41659,0.50629 -1.26816,1.94307 -1.89237,3.19285 -0.62421,1.24978 -1.56154,2.5449 -2.08297,2.87805 -0.52142,0.33314 -0.94804,1.10005 -0.94804,1.70424 0,0.60419 -0.35858,1.09853 -0.79684,1.09853 -0.43827,0 -1.14378,0.99522 -1.56782,2.21161 -0.42403,1.21637 -1.25842,2.39865 -1.8542,2.62727 -0.59578,0.22862 -1.08324,0.93765 -1.08324,1.57562 0,0.63796 -0.30718,1.15993 -0.68262,1.15993 -0.59853,0 -3.86204,4.83702 -3.86204,5.72412 0,0.18448 0.51128,0.33543 1.13617,0.33543 0.62489,0 1.13616,0.30385 1.13616,0.67523 0,0.37138 2.21552,1.11561 4.92338,1.65384 2.70786,0.53824 4.92338,1.22698 4.92338,1.53052 0,0.30355 1.3634,0.78225 3.02978,1.06379 1.66637,0.28153 3.02977,0.79905 3.02977,1.15006 0,0.55474 1.43189,1.03278 4.18696,1.39784 0.42816,0.0567 1.3655,-0.58244 2.08297,-1.4204 z M 19.655867,272.02043 c 0.229006,-0.34995 1.69456,-1.05295 3.256787,-1.56222 1.562226,-0.50928 2.840411,-1.21328 2.840411,-1.56447 0,-0.35118 1.022548,-0.86311 2.27233,-1.13761 1.249781,-0.27449 2.272329,-0.81285 2.272329,-1.19635 0,-0.38348 0.421169,-0.69725 0.935932,-0.69725 1.054464,0 9.079457,-3.87016 9.675858,-4.66631 0.21247,-0.28363 1.320231,-0.75009 2.461691,-1.03657 1.141459,-0.28649 2.075381,-0.77024 2.075381,-1.07499 0,-0.30475 1.363397,-1.00405 3.029772,-1.55401 1.666375,-0.54995 3.029772,-1.27076 3.029772,-1.6018 0,-0.33103 1.192973,-0.82569 2.651051,-1.09922 1.91847,-0.35991 2.651051,-0.89267 2.651051,-1.92793 0,-0.92563 -0.534717,-1.43059 -1.514886,-1.43059 -0.833187,0 -1.514886,-0.31377 -1.514886,-0.69726 0,-0.38349 -1.022548,-0.92185 -2.27233,-1.19635 -1.249781,-0.2745 -2.272329,-0.79917 -2.272329,-1.16594 0,-0.36678 -1.363397,-1.07534 -3.029772,-1.5746 -1.666375,-0.49926 -3.029773,-1.16756 -3.029773,-1.48511 0,-0.31755 -1.022548,-0.80195 -2.272329,-1.07645 -1.249781,-0.2745 -2.272329,-0.79917 -2.272329,-1.16594 0,-0.36678 -1.363398,-1.07534 -3.029773,-1.5746 -1.666374,-0.49926 -3.029772,-1.16756 -3.029772,-1.48511 0,-0.31755 -1.022548,-0.80196 -2.272329,-1.07645 -1.249781,-0.2745 -2.272329,-0.7583 -2.272329,-1.07512 0,-0.31681 -1.363398,-1.02598 -3.029773,-1.57593 -1.666375,-0.54996 -3.029772,-1.25913 -3.029772,-1.57594 0,-0.31682 -1.022548,-0.80062 -2.27233,-1.07512 -1.249781,-0.27449 -2.272329,-0.81285 -2.272329,-1.19635 0,-0.38348 -0.681699,-0.69725 -1.514886,-0.69725 -1.478328,0 -1.514886,0.50496 -1.514886,20.92436 v 20.92437 l 2.424037,-0.48481 c 1.33322,-0.26664 2.611405,-0.77113 2.840411,-1.12108 z M 490.82313,252.60727 c 0,-20.32472 -0.0367,-20.82968 -1.51489,-20.82968 -0.83319,0 -1.51489,0.33436 -1.51489,0.74301 0,0.40866 -0.85212,0.95688 -1.8936,1.21828 -1.04149,0.26139 -1.89361,0.73486 -1.89361,1.05216 0,0.31728 -1.53382,1.00633 -3.4085,1.53121 -1.87467,0.52487 -3.40849,1.21392 -3.40849,1.5312 0,0.3173 -0.85212,0.79077 -1.89361,1.05216 -1.04148,0.2614 -1.89361,0.76533 -1.89361,1.11984 0,0.35452 -1.53382,1.07402 -3.40849,1.5989 -1.87467,0.52488 -3.40849,1.21392 -3.40849,1.53121 0,0.31729 -0.85213,0.79076 -1.89361,1.05215 -1.04149,0.2614 -1.89361,0.80963 -1.89361,1.21828 0,0.40866 -0.42606,0.7402 -0.9468,0.73675 -1.75024,-0.0116 -13.44462,6.27492 -13.44462,7.22737 0,0.5182 1.19298,1.16598 2.65105,1.43952 1.45808,0.27353 2.65105,0.77844 2.65105,1.12202 0,0.34357 1.53383,1.05412 3.4085,1.579 1.87467,0.52488 3.40849,1.21393 3.40849,1.53121 0,0.31729 0.85213,0.79076 1.89361,1.05216 1.04148,0.2614 1.89361,0.80962 1.89361,1.21828 0,0.40865 0.40009,0.74301 0.88908,0.74301 0.96178,0 13.63665,6.09996 14.25978,6.86271 0.2083,0.25497 1.49102,0.84412 2.85049,1.30921 1.35948,0.46509 3.22479,1.37305 4.14512,2.01768 0.92034,0.64462 2.27919,1.17205 3.01969,1.17205 1.25753,0 1.34635,-1.37412 1.34635,-20.82969 z M 48.414219,221.93083 c 0.537494,-4.99913 1.242926,-9.08932 1.567625,-9.08932 0.3247,0 0.827626,-2.21552 1.117613,-4.92338 0.289987,-2.70786 0.808985,-4.92338 1.153328,-4.92338 0.344343,0 0.864718,-1.73512 1.156389,-3.85583 0.291671,-2.1207 0.99589,-4.75322 1.56493,-5.85005 0.56904,-1.09682 1.253209,-3.45189 1.520376,-5.23349 0.267167,-1.7816 0.749973,-3.23926 1.072902,-3.23926 0.322929,0 0.810946,-1.19298 1.084483,-2.65106 0.273537,-1.45807 0.768307,-2.65105 1.099487,-2.65105 0.33118,0 1.051873,-1.87467 1.601539,-4.16593 0.549666,-2.29127 1.258721,-4.16594 1.575678,-4.16594 0.316957,0 0.800874,-1.02255 1.075373,-2.27233 0.274498,-1.24978 0.77239,-2.27233 1.106427,-2.27233 0.334038,0 0.981573,-1.48621 1.438968,-3.30269 0.457394,-1.81648 1.349981,-3.73289 1.983527,-4.25868 0.633545,-0.5258 1.151901,-1.42553 1.151901,-1.99941 0,-0.57388 0.286293,-1.04342 0.636207,-1.04342 0.349914,0 1.086169,-1.3634 1.636122,-3.02977 0.549953,-1.66638 1.286208,-3.02978 1.636123,-3.02978 0.349913,0 0.636206,-0.32571 0.636206,-0.7238 0,-0.67088 2.893009,-5.41786 4.441313,-7.28753 0.371488,-0.44859 0.91053,-1.55636 1.197874,-2.46169 0.287344,-0.90534 0.840322,-1.64607 1.228845,-1.64607 0.388516,0 0.706399,-0.50838 0.706399,-1.12975 0,-0.62136 0.681699,-1.55547 1.514886,-2.0758 0.833188,-0.52033 1.514887,-1.32319 1.514887,-1.78413 0,-0.78268 0.720828,-1.773 4.547014,-6.24695 2.662912,-3.11372 1.66689,-5.42711 -2.336636,-5.42711 -0.79911,0 -1.452935,-0.29428 -1.452935,-0.65395 0,-0.35967 -2.045097,-1.08794 -4.544659,-1.61838 -2.499562,-0.53045 -4.544658,-1.21515 -4.544658,-1.52159 0,-0.30642 -1.438392,-0.78714 -3.196434,-1.06826 -1.758039,-0.28112 -3.436308,-0.89926 -3.729487,-1.37363 -0.656837,-1.06278 -2.92084,0.58433 -2.92084,2.12497 0,0.55319 -0.536313,1.30593 -1.191808,1.67275 -1.175404,0.6578 -2.55081,2.70308 -4.059022,6.03594 -0.424171,0.93734 -1.120505,1.70425 -1.54741,1.70425 -0.426905,0 -0.776191,0.52197 -0.776191,1.15993 0,0.63797 -0.490445,1.34814 -1.089879,1.57816 -0.599434,0.23003 -1.313274,1.43534 -1.58631,2.67847 -0.273037,1.24313 -0.954736,2.4361 -1.514886,2.65105 -0.560152,0.21494 -1.230537,1.35641 -1.489748,2.53659 -0.25921,1.18018 -0.917877,2.31715 -1.463704,2.5266 -0.545828,0.20945 -1.233722,1.34228 -1.528655,2.51738 -0.294932,1.17511 -0.773102,2.31039 -1.062601,2.52286 -0.982767,0.72128 -6.940535,13.25535 -6.934233,14.58837 0.0035,0.72904 -0.307499,1.32553 -0.690992,1.32553 -0.383493,0 -0.921849,1.02254 -1.196347,2.27233 -0.274499,1.24978 -0.758416,2.27232 -1.075373,2.27232 -0.316957,0 -1.026012,1.87468 -1.575678,4.16594 -0.549666,2.29127 -1.255844,4.16594 -1.569284,4.16594 -0.31344,0 -0.799933,1.36161 -1.081097,3.0258 -0.281163,1.6642 -0.78478,3.19488 -1.119148,3.40154 -0.334369,0.20665 -1.048942,2.59437 -1.587939,5.30607 -0.538998,2.71168 -1.226329,4.93034 -1.527403,4.93034 -0.301074,0 -0.7818,1.70424 -1.068282,3.78721 -0.286481,2.08297 -0.780818,3.78722 -1.098526,3.78722 -0.317708,0 -1.032351,3.57892 -1.588094,7.95315 -0.555744,4.37423 -1.286365,7.95315 -1.623601,7.95315 -0.337237,0 -0.613159,1.47809 -0.613159,3.28464 0,3.20311 0.09897,3.33471 3.987448,5.3021 2.193096,1.10961 4.380213,2.01747 4.860259,2.01747 0.480047,0 0.986429,0.25563 1.125294,0.56808 0.336583,0.75731 8.352152,4.73402 9.54203,4.73402 0.514763,0 0.935933,0.34085 0.935933,0.75744 0,0.41659 0.447833,0.75744 0.995185,0.75744 0.712371,0 1.272906,-2.58302 1.972448,-9.08931 z M 460.5254,230.2931 c 0,-0.39986 1.3634,-1.13552 3.02977,-1.63478 1.66638,-0.49925 3.02978,-1.16755 3.02978,-1.4851 0,-0.31755 1.02254,-0.80196 2.27233,-1.07646 1.24978,-0.27449 2.27233,-0.7583 2.27233,-1.07511 0,-0.31681 1.36339,-1.02598 3.02977,-1.57594 1.66637,-0.54995 3.02977,-1.24645 3.02977,-1.54778 0,-0.30132 0.6817,-0.72613 1.51489,-0.94402 1.0932,-0.28587 1.51488,-1.03316 1.51488,-2.68458 0,-3.57187 -1.57949,-14.05358 -2.24467,-14.89586 -0.329,-0.41659 -0.83518,-2.71733 -1.12486,-5.11274 -0.28968,-2.39541 -0.78842,-4.3553 -1.10832,-4.3553 -0.3199,0 -1.00803,-2.38594 -1.52917,-5.3021 -0.52115,-2.91616 -1.21873,-5.3021 -1.55019,-5.3021 -0.33146,0 -0.83267,-1.53382 -1.11379,-3.40849 -0.28113,-1.87468 -0.80114,-3.4085 -1.15559,-3.4085 -0.35445,0 -0.8748,-1.3634 -1.15633,-3.02977 -0.28154,-1.66638 -0.78877,-3.02977 -1.1272,-3.02977 -0.33842,0 -1.02416,-1.70425 -1.52385,-3.78722 -0.4997,-2.08297 -1.19995,-3.78721 -1.55612,-3.78721 -0.35616,0 -0.87137,-1.19298 -1.14491,-2.65106 -0.27354,-1.45807 -0.80025,-2.65105 -1.17048,-2.65105 -0.37024,0 -0.67315,-0.42116 -0.67315,-0.93593 0,-0.99985 -3.83638,-9.03416 -4.61659,-9.66827 -0.25629,-0.2083 -0.87366,-1.62964 -1.37194,-3.15854 -0.49828,-1.5289 -1.39979,-3.18967 -2.00337,-3.6906 -0.60358,-0.50093 -1.09742,-1.38032 -1.09742,-1.9542 0,-0.57388 -0.27723,-1.04342 -0.61607,-1.04342 -0.33884,0 -1.08415,-1.19297 -1.65626,-2.65105 -0.5721,-1.45808 -1.31742,-2.65105 -1.65626,-2.65105 -0.33884,0 -0.61607,-0.52197 -0.61607,-1.15993 0,-0.63798 -0.51127,-1.35614 -1.13616,-1.59593 -0.62489,-0.2398 -1.13617,-0.73375 -1.13617,-1.09769 0,-1.20069 -5.38186,-9.10114 -6.48926,-9.52609 -0.59684,-0.22902 -1.09039,-0.80601 -1.09676,-1.28218 -0.0249,-1.85208 -1.34743,-3.07408 -2.39237,-2.21036 -0.55249,0.45667 -2.28272,1.06917 -3.84494,1.36111 -1.56223,0.29194 -2.84041,0.80376 -2.84041,1.13737 0,0.33361 -1.44861,0.84484 -3.21914,1.13607 -1.77052,0.29122 -4.64904,1.17331 -6.39671,1.96019 -1.74766,0.78687 -3.70755,1.43068 -4.3553,1.43068 -1.8677,0 -1.37529,2.14421 1.09659,4.77509 1.25087,1.33135 2.46681,3.0171 2.70209,3.74614 0.23529,0.72904 0.74567,1.32553 1.13419,1.32553 0.38852,0 0.7064,0.37686 0.7064,0.83746 0,0.46061 0.85726,1.90922 1.90502,3.21913 2.73118,3.41453 2.92375,3.69275 4.00756,5.79017 2.40427,4.65281 3.29936,6.05954 3.85562,6.05954 0.32792,0 1.0047,1.3634 1.50396,3.02978 0.49926,1.66637 1.23491,3.02977 1.63478,3.02977 0.39987,0 0.72704,0.45912 0.72704,1.02027 0,0.56114 0.6817,1.80627 1.51488,2.76694 0.83319,0.96068 1.51489,2.20581 1.51489,2.76695 0,0.56115 0.34085,1.02027 0.75744,1.02027 0.4166,0 0.75745,0.57229 0.75745,1.27175 0,1.76632 1.70171,6.30268 2.3643,6.30268 0.2998,0 0.76969,1.02255 1.04419,2.27233 0.2745,1.24978 0.75841,2.27233 1.07537,2.27233 0.31696,0 1.02601,1.87467 1.57568,4.16594 0.54967,2.29126 1.24787,4.16593 1.55156,4.16593 0.3037,0 0.79104,1.27819 1.08298,2.84041 0.29193,1.56223 0.8032,3.18127 1.13614,3.59786 0.33293,0.41659 1.04045,2.80254 1.57225,5.3021 0.5318,2.49956 1.21954,4.88551 1.52831,5.3021 0.30878,0.4166 0.81105,2.46169 1.11616,4.54466 0.3051,2.08297 0.84767,3.97738 1.20569,4.2098 0.35803,0.23242 1.04889,4.06698 1.53525,8.52124 0.48636,4.45425 1.16867,8.09865 1.51624,8.09865 0.34758,0 0.63195,1.53382 0.63195,3.40849 0,2.52481 0.29456,3.40849 1.13617,3.40849 0.62489,0 1.13616,-0.32717 1.13616,-0.72704 z M 114.37391,113.67425 c 0,-1.82783 -1.84272,-8.38966 -2.35601,-8.38966 -0.31952,0 -0.81095,-1.53382 -1.09208,-3.40849 -0.28112,-1.87468 -0.77535,-3.408498 -1.09828,-3.408498 -0.32292,0 -0.79734,-1.10776 -1.05426,-2.46169 -0.25691,-1.353929 -0.96379,-3.413425 -1.57086,-4.576653 -0.60706,-1.163228 -1.32485,-3.293536 -1.59508,-4.734019 -0.27024,-1.440483 -0.75556,-2.619056 -1.07849,-2.619056 -0.32293,0 -0.81715,-1.533823 -1.09828,-3.408494 -0.28112,-1.874672 -0.80114,-3.408494 -1.15559,-3.408494 -0.35444,0 -0.87479,-1.363398 -1.15633,-3.029773 -0.36926,-2.185635 -0.88121,-3.029772 -1.837501,-3.029772 -0.729092,0 -7.34569,6.020074 -14.703561,13.377937 -7.357863,7.357871 -13.377937,13.974469 -13.377937,14.703561 0,0.956291 0.844137,1.468241 3.029772,1.837501 1.666375,0.28154 3.029773,0.80189 3.029773,1.15633 0,0.35445 1.533822,0.87447 3.408494,1.15559 1.874671,0.28113 3.408494,0.77535 3.408494,1.09828 0,0.32293 1.178573,0.80825 2.619056,1.07849 1.440483,0.27023 3.570791,0.98802 4.734019,1.59508 1.163228,0.60707 3.222724,1.31395 4.576653,1.57086 1.35393,0.25692 2.46169,0.73134 2.46169,1.05426 0,0.32293 1.533818,0.81716 3.408498,1.09828 1.87467,0.28113 3.40849,0.78268 3.40849,1.11455 0,0.33188 1.44861,0.95176 3.21913,1.37752 4.28746,1.03099 5.87019,1.10011 5.87019,0.25636 z m 281.62278,-0.16711 c 1.955,-0.47672 3.89539,-1.12791 4.31199,-1.4471 0.41659,-0.31919 2.03562,-0.81921 3.59785,-1.11114 1.56223,-0.29194 2.84041,-0.80376 2.84041,-1.13737 0,-0.33361 1.44861,-0.84406 3.21914,-1.13433 1.77052,-0.29027 3.7304,-0.96482 4.35529,-1.499 0.62489,-0.53418 2.58478,-1.20874 4.3553,-1.499 1.77052,-0.29027 3.21913,-0.8087 3.21913,-1.15205 0,-0.34336 1.3634,-0.85463 3.02978,-1.13617 1.66637,-0.28153 3.02977,-0.78406 3.02977,-1.11673 0,-0.33268 1.53382,-0.83488 3.40849,-1.11601 2.363,-0.35435 3.4085,-0.87321 3.4085,-1.691585 0,-1.724562 -26.89798,-28.267004 -28.64565,-28.267004 -1.15408,0 -1.63928,0.915152 -2.40952,4.544659 -0.53045,2.499562 -1.22001,4.544658 -1.53238,4.544658 -0.31237,0 -0.79795,1.533822 -1.07908,3.408494 -0.28112,1.874672 -0.77686,3.408494 -1.10163,3.408494 -0.32478,0 -1.02781,1.959884 -1.56228,4.355298 -0.53448,2.395414 -1.44084,5.027627 -2.01414,5.849362 -0.5733,0.821727 -1.04236,2.270337 -1.04236,3.219134 0,0.94879 -0.29428,1.72507 -0.65395,1.72507 -0.35966,0 -1.08794,2.04509 -1.61838,4.54466 -0.53045,2.49956 -1.25872,4.54466 -1.61839,4.54466 -0.35967,0 -0.65394,0.68169 -0.65394,1.51488 0,1.76076 0.39142,1.80996 5.15605,0.64812 z M 383.7532,89.529865 c 0.46828,-0.749823 1.2862,-3.306194 1.81763,-5.680823 0.53142,-2.374638 1.22286,-4.317517 1.53654,-4.317517 0.31369,0 0.81247,-1.44861 1.1084,-3.219133 0.29593,-1.770523 0.79435,-3.389558 1.10758,-3.597855 0.31324,-0.208297 0.81155,-1.494182 1.10735,-2.857524 0.49285,-2.271528 0.34755,-2.545132 -1.73772,-3.27206 -1.25155,-0.436292 -2.4626,-1.280715 -2.69122,-1.876495 -0.22862,-0.595781 -0.93765,-1.083238 -1.57562,-1.083238 -0.63796,0 -1.15993,-0.349286 -1.15993,-0.776191 0,-0.426904 -0.85213,-1.100167 -1.89361,-1.496138 -1.04149,-0.395972 -1.89361,-1.069234 -1.89361,-1.496139 0,-0.426905 -0.45912,-0.776191 -1.02027,-0.776191 -0.56114,0 -1.80627,-0.681698 -2.76694,-1.514886 -0.96068,-0.833187 -2.15365,-1.514886 -2.65106,-1.514886 -0.4974,0 -1.69037,-0.681699 -2.65105,-1.514886 -0.96067,-0.833188 -2.2058,-1.514886 -2.76694,-1.514886 -0.56115,0 -1.02027,-0.314416 -1.02027,-0.698702 0,-0.384286 -1.19297,-1.092419 -2.65105,-1.573628 -1.45808,-0.481209 -2.65105,-1.162259 -2.65105,-1.513444 0,-0.351186 -1.02255,-0.863108 -2.27233,-1.137606 -1.24978,-0.274499 -2.27233,-0.785773 -2.27233,-1.136165 0,-0.350393 -1.02255,-0.861667 -2.27233,-1.136165 -1.24978,-0.274498 -2.27233,-0.78642 -2.27233,-1.137606 0,-0.351185 -1.27819,-1.031541 -2.84041,-1.511902 -3.10914,-0.95601 -7.92163,-3.141708 -8.52124,-3.870102 -0.20829,-0.253036 -2.16818,-0.91396 -4.35529,-1.46872 -2.18712,-0.55476 -3.97658,-1.241502 -3.97658,-1.526095 0,-0.284593 -1.43839,-0.74745 -3.19643,-1.028572 -1.75804,-0.281122 -3.38736,-0.820046 -3.6207,-1.197609 -0.23336,-0.377562 -2.71472,-1.120973 -5.51417,-1.652022 -2.79944,-0.531049 -5.08989,-1.207777 -5.08989,-1.503839 0,-0.296062 -1.61904,-0.776913 -3.59786,-1.068557 -1.97882,-0.291644 -3.7886,-0.824141 -4.02174,-1.183328 -0.23314,-0.359187 -3.89727,-1.068437 -8.14251,-1.576113 -4.24524,-0.507675 -7.71863,-1.189035 -7.71863,-1.514133 0,-0.325098 -1.23821,-0.591087 -2.75156,-0.591087 -3.1322,0 -5.203,1.85989 -5.97271,5.364377 -0.26698,1.21553 -0.7721,2.210054 -1.12249,2.210054 -0.35039,0 -0.86167,1.022548 -1.13616,2.272329 -0.2745,1.249781 -0.74193,2.27233 -1.03874,2.27233 -0.57836,0 -4.64209,8.455313 -4.64209,9.658702 0,0.396614 4.0902,1.148994 9.08932,1.671956 4.99913,0.522962 9.08932,1.211121 9.08932,1.529242 0,0.318122 2.04509,0.80978 4.54466,1.092573 2.49956,0.282793 4.54466,0.804626 4.54466,1.15963 0,0.355003 2.0457,0.882889 4.54601,1.173081 2.50031,0.290191 4.72165,0.811789 4.9363,1.159105 0.21465,0.347317 2.25914,1.049716 4.5433,1.56089 2.28416,0.511172 4.15302,1.216015 4.15302,1.566316 0,0.350301 0.59649,0.639011 1.32552,0.641578 0.72904,0.0026 2.21345,0.467988 3.29868,1.034272 1.08523,0.566282 3.72681,1.450303 5.87019,1.964489 2.14337,0.514186 3.89703,1.235243 3.89703,1.602348 0,0.367106 0.85212,0.881334 1.89361,1.14273 1.04148,0.261396 1.8936,0.745167 1.8936,1.075047 0,0.32988 1.67845,1.002437 3.7299,1.494569 2.05143,0.492133 3.91541,1.378254 4.14216,1.969156 0.22675,0.590903 0.93424,1.074369 1.57221,1.074369 0.63797,0 1.15994,0.296552 1.15994,0.659005 0,0.362452 1.53382,1.088449 3.40849,1.613324 1.87467,0.524876 3.40849,1.250872 3.40849,1.613324 0,0.362453 0.52197,0.659005 1.15994,0.659005 0.63797,0 1.33386,0.453224 1.54642,1.007165 0.21257,0.553941 1.56527,1.469682 3.006,2.034984 1.44074,0.565295 2.61952,1.305045 2.61952,1.643887 0,0.338834 0.52197,0.616066 1.15993,0.616066 0.63797,0 1.35614,0.511274 1.59593,1.136165 0.2398,0.62489 0.85797,1.136164 1.37372,1.136164 0.51575,0 1.55466,0.681699 2.30869,1.514886 0.75402,0.833188 1.84009,1.514887 2.41349,1.514887 0.5734,0 1.23874,0.511274 1.47853,1.136164 0.2398,0.624891 0.85138,1.136165 1.35908,1.136165 0.5077,0 1.72362,0.852123 2.70205,1.893608 2.09875,2.234018 3.85225,2.418826 5.03165,0.530301 z M 254.82963,54.157181 c 0.27353,-1.458078 0.76819,-2.651051 1.09922,-2.651051 0.33104,0 1.05185,-1.363397 1.6018,-3.029772 0.54996,-1.666375 1.24926,-3.029772 1.55401,-3.029772 0.30475,0 0.7885,-0.933922 1.07499,-2.075381 0.28648,-1.14146 0.75294,-2.249221 1.03657,-2.461691 0.79615,-0.596401 4.66631,-8.621394 4.66631,-9.675858 0,-0.514763 0.31377,-0.935932 0.69725,-0.935932 0.3835,0 0.92186,-1.022548 1.19635,-2.272329 0.2745,-1.249782 0.78643,-2.27233 1.13761,-2.27233 0.35119,0 1.05519,-1.278185 1.56447,-2.840411 0.50927,-1.562227 1.21227,-3.027781 1.56222,-3.256787 0.34995,-0.229006 0.85444,-1.507191 1.12108,-2.840411 l 0.48481,-2.424037 h -20.92437 c -20.4194,0 -20.92436,0.03656 -20.92436,1.514886 0,0.833187 0.31377,1.514886 0.69725,1.514886 0.3835,0 0.92186,1.022548 1.19635,2.272329 0.2745,1.249782 0.7583,2.27233 1.07512,2.27233 0.31681,0 1.02598,1.363397 1.57594,3.029772 0.54995,1.666375 1.25912,3.029773 1.57593,3.029773 0.31682,0 0.80062,1.022548 1.07512,2.272329 0.27449,1.249781 0.7589,2.272329 1.07645,2.272329 0.31755,0 0.98585,1.363398 1.48511,3.029772 0.49926,1.666375 1.20782,3.029773 1.5746,3.029773 0.36677,0 0.89144,1.022548 1.16594,2.272329 0.2745,1.249781 0.7589,2.272329 1.07645,2.272329 0.31755,0 0.98585,1.363398 1.48511,3.029773 0.49926,1.666375 1.20782,3.029772 1.5746,3.029772 0.36677,0 0.89144,1.022548 1.16594,2.272329 0.2745,1.249782 0.81286,2.27233 1.19635,2.27233 0.38349,0 0.69726,0.681699 0.69726,1.514886 0,0.980169 0.50496,1.514886 1.43059,1.514886 1.03526,0 1.56802,-0.732581 1.92793,-2.651051 z"
       id="path4430"
       transform="matrix(0.26458333,0,0,0.26458333,22.657675,87.575643)" /><path
       style="fill:#ffd688;fill-opacity:1;stroke-width:0.757443"
       d="m 236.32225,407.61613 c 0,-0.35513 -2.90613,-0.86908 -6.45806,-1.14211 -3.55193,-0.27302 -7.04564,-0.82086 -7.76379,-1.21741 -0.71816,-0.39655 -3.7769,-1.10637 -6.7972,-1.57738 -3.0203,-0.471 -5.49146,-1.12773 -5.49146,-1.45938 0,-0.33166 -1.53382,-0.83301 -3.4085,-1.11414 -1.87467,-0.28112 -3.40849,-0.77686 -3.40849,-1.10163 0,-0.32478 -1.87467,-1.01004 -4.16594,-1.5228 -2.29126,-0.51276 -4.16593,-1.21077 -4.16593,-1.55113 0,-0.34035 -1.19298,-0.84262 -2.65106,-1.11616 -1.45807,-0.27353 -2.65105,-0.77844 -2.65105,-1.12202 0,-0.34358 -1.53382,-1.05413 -3.40849,-1.579 -1.87467,-0.52488 -3.40849,-1.24438 -3.40849,-1.5989 0,-0.35451 -0.85213,-0.85844 -1.89361,-1.11984 -1.04149,-0.26139 -1.89361,-0.75208 -1.89361,-1.09041 0,-0.33833 -1.04558,-0.8448 -2.32351,-1.12547 -1.27793,-0.28068 -2.49938,-0.96864 -2.71433,-1.52879 -0.21494,-0.56015 -1.35641,-1.23053 -2.53659,-1.48975 -1.18018,-0.25921 -2.33398,-0.96174 -2.564,-1.56117 -0.23003,-0.59943 -0.78358,-1.08988 -1.23011,-1.08988 -1.01782,0 -5.46783,-3.08634 -6.27965,-4.35529 -0.33315,-0.52075 -0.94112,-0.94681 -1.35105,-0.94681 -0.40994,0 -1.74491,-1.02255 -2.96661,-2.27233 -1.2217,-1.24978 -2.4884,-2.27424 -2.81488,-2.27658 -0.32649,-0.002 -2.63871,-1.89056 -5.13827,-4.19603 -2.49956,-2.30547 -5.45975,-4.94514 -6.5782,-5.86592 -1.11844,-0.92079 -2.05578,-2.08329 -2.08297,-2.58333 -0.0272,-0.50004 -0.47549,-1.18174 -0.99623,-1.51489 -1.03556,-0.6625 -6.11384,-6.39996 -8.52124,-9.62731 -0.83318,-1.11698 -2.36701,-2.96981 -3.40849,-4.11739 -1.04148,-1.1476 -2.40488,-3.09184 -3.02977,-4.32054 -0.62489,-1.2287 -1.47702,-2.64823 -1.89361,-3.15452 -1.76048,-2.1395 -2.38636,-3.16514 -4.54466,-7.44745 -1.24978,-2.47971 -2.52797,-4.62218 -2.84041,-4.76104 -0.31245,-0.13887 -0.56808,-0.64525 -0.56808,-1.12529 0,-0.9029 -3.82473,-8.93484 -4.57387,-9.60516 -0.2328,-0.20829 -0.86793,-1.91254 -1.41142,-3.78721 -0.54348,-1.87467 -1.25526,-3.74934 -1.58173,-4.16594 -0.32647,-0.41659 -0.8325,-2.20605 -1.12452,-3.97657 -0.29201,-1.77053 -0.81186,-3.21914 -1.15522,-3.21914 -0.34336,0 -0.85464,-1.36339 -1.13617,-3.02977 -0.28153,-1.66637 -0.78435,-3.02977 -1.11739,-3.02977 -0.33303,0 -1.03685,-3.49371 -1.56404,-7.76379 -0.52719,-4.27009 -1.332507,-8.24235 -1.789597,-8.82725 -1.147352,-1.46816 -1.16198,-46.87042 -0.01535,-47.62999 0.44865,-0.29719 1.270707,-4.03406 1.826787,-8.30415 0.55608,-4.27008 1.27588,-7.76379 1.59955,-7.76379 0.32368,0 0.81851,-1.53382 1.09963,-3.40849 0.28113,-1.87468 0.77535,-3.4085 1.09828,-3.4085 0.32293,0 0.80825,-1.17857 1.07849,-2.61905 0.27023,-1.44049 0.98802,-3.5708 1.59508,-4.73402 0.60707,-1.16323 1.31395,-3.22273 1.57087,-4.57666 0.25691,-1.35393 0.74294,-2.46169 1.08007,-2.46169 0.33713,0 0.83756,-1.02255 1.11205,-2.27233 0.2745,-1.24978 0.75891,-2.27233 1.07646,-2.27233 0.31755,0 0.98585,-1.36339 1.48511,-3.02977 0.49925,-1.66637 1.20782,-3.02977 1.57459,-3.02977 0.36677,0 0.89145,-1.02255 1.16595,-2.27233 0.27449,-1.24978 0.74923,-2.27233 1.05497,-2.27233 0.30574,0 1.02397,-1.19297 1.59608,-2.65105 0.5721,-1.45808 1.31742,-2.65105 1.65626,-2.65105 0.33883,0 0.61607,-0.49434 0.61607,-1.09853 0,-0.60419 0.42661,-1.3711 0.94803,-1.70424 0.52143,-0.33315 1.454,-1.62827 2.07239,-2.87805 0.61839,-1.24978 1.89602,-3.02297 2.83918,-3.94041 0.94315,-0.91745 1.71483,-1.98943 1.71483,-2.38219 0,-0.39276 0.84622,-1.5168 1.88051,-2.49786 1.03428,-0.98106 1.88642,-2.04107 1.89361,-2.35557 0.007,-0.31451 1.71733,-2.24058 3.8003,-4.28017 2.08297,-2.03959 3.78721,-4.01614 3.78721,-4.39233 0,-0.83517 4.75587,-5.52582 5.60265,-5.52582 0.33394,0 2.27591,-1.70424 4.3155,-3.78721 2.0396,-2.08297 3.96567,-3.79311 4.28017,-3.8003 0.31451,-0.007 1.37451,-0.85933 2.35557,-1.89361 0.98107,-1.03429 2.1051,-1.88052 2.49786,-1.88052 0.39277,0 1.46475,-0.77168 2.3822,-1.71483 0.91744,-0.94316 2.69063,-2.22079 3.94041,-2.83918 1.24978,-0.61839 2.5449,-1.55096 2.87805,-2.07239 0.33314,-0.52142 1.10005,-0.94803 1.70424,-0.94803 0.60419,0 1.09853,-0.27724 1.09853,-0.61607 0,-0.33884 1.19297,-1.08416 2.65105,-1.65626 1.45808,-0.57211 2.65105,-1.29034 2.65105,-1.59608 0,-0.30574 1.02255,-0.78048 2.27233,-1.05497 1.24978,-0.2745 2.27233,-0.79918 2.27233,-1.16595 0,-0.36677 1.3634,-1.07534 3.02977,-1.57459 1.66638,-0.49926 3.02977,-1.16756 3.02977,-1.48511 0,-0.31755 1.02255,-0.80196 2.27233,-1.07646 1.24978,-0.27449 2.27233,-0.77492 2.27233,-1.11205 0,-0.33713 1.10776,-0.82316 2.46169,-1.08007 1.35393,-0.25692 3.37607,-0.94442 4.49364,-1.5278 1.11757,-0.58337 3.07745,-1.29031 4.3553,-1.57097 1.27784,-0.28066 2.32335,-0.78015 2.32335,-1.10997 0,-0.32983 1.70425,-0.82576 3.78721,-1.10207 2.08297,-0.27632 3.78722,-0.7831 3.78722,-1.12618 0,-0.34308 3.15286,-1.0499 7.00635,-1.5707 3.85349,-0.5208 7.48479,-1.336118 8.06956,-1.811815 1.47155,-1.197064 49.12879,-1.225347 49.90246,-0.02962 0.29725,0.459409 3.86374,1.270185 7.92553,1.801725 4.06179,0.53154 7.38507,1.23346 7.38507,1.55982 0,0.32637 1.3634,0.82374 3.02977,1.10527 1.66638,0.28153 3.02977,0.79281 3.02977,1.13617 0,0.34336 1.4486,0.86321 3.21913,1.15522 1.77052,0.29202 3.55998,0.79805 3.97657,1.12452 0.4166,0.32647 2.29127,1.03825 4.16594,1.58173 1.87467,0.54349 3.57892,1.17862 3.78721,1.41142 0.67032,0.74914 8.70226,4.57387 9.60516,4.57387 0.48004,0 0.98642,0.25563 1.12529,0.56808 0.13887,0.31244 2.28577,1.59063 4.77089,2.84041 4.32453,2.17482 4.97189,2.58114 7.54242,4.73402 0.62178,0.52074 1.48284,0.9468 1.91348,0.9468 0.43064,0 1.20873,0.6817 1.72905,1.51489 0.52034,0.83319 1.3232,1.51489 1.78414,1.51489 0.46093,0 1.57508,0.59648 2.4759,1.32552 0.9008,0.72904 2.5329,2.00723 3.62687,2.84041 3.45024,2.62776 8.85396,7.49449 10.72299,9.6574 0.98997,1.14564 2.28093,2.08297 2.86878,2.08297 0.58786,0 1.06939,0.42606 1.07007,0.94681 6.7e-4,0.52074 2.04577,2.96532 4.54466,5.43241 2.49888,2.46708 4.54342,4.7793 4.54342,5.13827 0,0.35896 0.95714,1.58829 2.12697,2.73184 1.16983,1.14354 2.35211,2.66588 2.62728,3.38296 0.27517,0.71708 0.85185,1.30379 1.28153,1.30379 0.42967,0 0.78121,0.45845 0.78121,1.01877 0,0.56032 0.6817,1.6357 1.51489,2.38972 0.83318,0.75403 1.51488,1.8401 1.51488,2.4135 0,0.5734 0.49045,1.23074 1.08988,1.46077 0.59943,0.23002 1.30196,1.38382 1.56117,2.564 0.25922,1.18018 0.9296,2.32165 1.48975,2.53659 0.56015,0.21495 1.24811,1.4364 1.52879,2.71433 0.28067,1.27793 0.78714,2.32351 1.12547,2.32351 0.33833,0 0.82902,0.85212 1.09041,1.89361 0.2614,1.04148 0.76533,1.89361 1.11984,1.89361 0.35452,0 1.07402,1.53382 1.5989,3.40849 0.52487,1.87467 1.23542,3.40849 1.579,3.40849 0.34358,0 0.84849,1.19298 1.12202,2.65105 0.27355,1.45808 0.77581,2.65106 1.11616,2.65106 0.34036,0 1.03837,1.87467 1.55113,4.16593 0.51276,2.29127 1.18895,4.16594 1.50263,4.16594 0.31368,0 0.81246,1.44861 1.10839,3.21913 0.29594,1.77053 0.82258,3.40066 1.17032,3.62252 0.34774,0.22186 1.02322,2.94866 1.50105,6.05954 0.47783,3.11089 1.16767,6.02417 1.53297,6.47395 0.3653,0.44977 0.89135,3.77306 1.16899,7.38507 0.27764,3.61201 0.79537,6.56729 1.1505,6.56729 0.35515,0 0.6457,4.44732 0.6457,9.88292 0,9.71429 -0.0342,9.91462 -2.00421,11.74037 -2.75395,2.55227 -7.60597,2.57366 -10.33384,0.0455 -1.88791,-1.74965 -1.98388,-2.27511 -2.79393,-15.29949 -0.46137,-7.41818 -1.12723,-13.84588 -1.47967,-14.28378 -0.35244,-0.43789 -0.88266,-2.92648 -1.17827,-5.53019 -0.29559,-2.60371 -0.80093,-4.73402 -1.12295,-4.73402 -0.32202,0 -0.81156,-1.70425 -1.08788,-3.78721 -0.27631,-2.08297 -0.77726,-3.78722 -1.1132,-3.78722 -0.33596,0 -1.03585,-1.89921 -1.55534,-4.22047 -0.51947,-2.32125 -1.40915,-5.13326 -1.97708,-6.2489 -2.09912,-4.12357 -4.13646,-8.97108 -4.13646,-9.84198 0,-0.49337 -0.3039,-0.89703 -0.67533,-0.89703 -0.37143,0 -0.90973,-0.93392 -1.19622,-2.07538 -0.28649,-1.14145 -0.76587,-2.24921 -1.06528,-2.46169 -0.29942,-0.21247 -1.52107,-2.09055 -2.71479,-4.17352 -1.19372,-2.08297 -2.37087,-3.95764 -2.61589,-4.16594 -0.24503,-0.2083 -0.90379,-1.26967 -1.46392,-2.35861 -0.56013,-1.08893 -1.83777,-2.86351 -2.8392,-3.94351 -1.00143,-1.08 -1.82079,-2.19828 -1.82079,-2.48506 0,-0.60461 -0.0439,-0.65255 -12.25131,-13.36803 -5.09932,-5.31157 -9.55309,-9.6574 -9.89726,-9.6574 -0.34418,0 -1.5614,-0.95713 -2.70495,-2.12697 -1.14355,-1.16983 -2.66589,-2.3521 -3.38297,-2.62728 -0.71708,-0.27517 -1.30379,-0.8105 -1.30379,-1.18963 0,-0.37912 -1.02255,-1.11287 -2.27233,-1.63055 -1.24978,-0.51768 -2.27233,-1.24073 -2.27233,-1.60678 0,-0.36605 -0.49433,-0.66555 -1.09852,-0.66555 -0.60419,0 -1.37111,-0.46306 -1.70425,-1.02903 -0.33315,-0.56597 -1.85664,-1.43553 -3.38554,-1.93235 -1.5289,-0.49683 -3.18967,-1.39716 -3.6906,-2.00074 -0.50093,-0.60359 -1.38032,-1.09742 -1.9542,-1.09742 -0.57388,0 -1.04342,-0.2863 -1.04342,-0.63621 0,-0.34992 -1.3634,-1.08617 -3.02977,-1.63612 -1.66638,-0.54996 -3.02977,-1.24828 -3.02977,-1.55183 0,-0.30355 -1.19298,-0.77571 -2.65106,-1.04925 -1.45807,-0.27354 -2.65105,-0.8073 -2.65105,-1.18614 0,-0.37884 -1.19673,-0.91331 -2.65942,-1.18771 -1.46267,-0.2744 -2.8369,-0.7861 -3.05384,-1.1371 -0.21693,-0.35101 -2.42869,-1.03842 -4.91501,-1.52757 -2.48632,-0.48915 -4.52059,-1.15875 -4.52059,-1.48798 0,-0.32923 -2.21552,-0.83587 -4.92338,-1.12586 -2.70786,-0.28998 -4.92338,-0.78026 -4.92338,-1.08951 0,-1.07447 -15.28261,-2.29103 -28.78028,-2.29103 -13.5577,0 -28.82676,1.17174 -29.54284,2.26711 -0.20829,0.31862 -2.16818,0.82298 -4.35529,1.12079 -2.18712,0.29781 -3.97658,0.7726 -3.97658,1.0551 0,0.28249 -2.30073,0.9484 -5.11274,1.47978 -2.81201,0.53138 -5.22276,1.28002 -5.35723,1.66364 -0.13447,0.38362 -1.41265,0.91664 -2.84041,1.18449 -1.42776,0.26785 -2.59593,0.76284 -2.59593,1.09997 0,0.33712 -1.02254,0.83755 -2.27233,1.11205 -1.24978,0.27449 -2.27232,0.74841 -2.27232,1.05315 0,0.30474 -1.67721,0.98392 -3.72713,1.5093 -2.04992,0.52538 -3.9139,1.44194 -4.14217,2.0368 -0.22827,0.59486 -0.937,1.08157 -1.57497,1.08157 -0.63797,0 -1.15994,0.31377 -1.15994,0.69726 0,0.38349 -1.04558,0.92691 -2.32351,1.20759 -1.27793,0.28068 -2.50737,0.98946 -2.73209,1.57507 -0.22472,0.5856 -0.86644,1.06474 -1.42607,1.06474 -0.55962,0 -1.29006,0.42662 -1.6232,0.94804 -0.33315,0.52142 -1.62827,1.45399 -2.87805,2.07238 -1.24978,0.61839 -3.02297,1.89602 -3.94041,2.83918 -0.91745,0.94316 -1.96579,1.71483 -2.32966,1.71483 -0.36387,0 -1.4621,0.85212 -2.44053,1.89361 -0.97842,1.04148 -2.04849,1.8936 -2.37794,1.8936 -0.78226,0 -16.55814,15.77588 -16.55814,16.55814 0,0.32945 -0.85212,1.39952 -1.8936,2.37794 -1.04149,0.97843 -1.89361,2.07666 -1.89361,2.44053 0,0.36387 -0.77167,1.41221 -1.71483,2.32966 -0.94316,0.91744 -2.22079,2.69063 -2.83918,3.94041 -0.61839,1.24978 -1.55096,2.5449 -2.07238,2.87805 -0.52142,0.33314 -0.94804,1.06358 -0.94804,1.6232 0,0.55963 -0.47914,1.20135 -1.06474,1.42607 -0.58561,0.22472 -1.29439,1.45416 -1.57507,2.73209 -0.28068,1.27793 -0.8241,2.32351 -1.20759,2.32351 -0.38349,0 -0.69726,0.52197 -0.69726,1.15994 0,0.63797 -0.48671,1.3467 -1.08157,1.57497 -0.59486,0.22827 -1.51142,2.09225 -2.0368,4.14217 -0.52538,2.04992 -1.20456,3.72713 -1.5093,3.72713 -0.30474,0 -0.77866,1.02254 -1.05315,2.27232 -0.2745,1.24979 -0.77493,2.27233 -1.11205,2.27233 -0.33713,0 -0.83212,1.16817 -1.09997,2.59593 -0.26785,1.42776 -0.80087,2.70594 -1.18449,2.84041 -0.38362,0.13447 -1.13226,2.54522 -1.66364,5.35723 -0.53138,2.81201 -1.19729,5.11274 -1.47978,5.11274 -0.2825,0 -0.75729,1.78946 -1.0551,3.97658 -0.29781,2.18711 -0.80217,4.147 -1.12079,4.35529 -1.09537,0.71608 -2.26711,15.98514 -2.26711,29.54284 0,13.44638 1.21553,28.78028 2.28144,28.78028 0.30396,0 0.78404,2.0451 1.06683,4.54466 0.28279,2.49956 0.80611,4.54466 1.16293,4.54466 0.35681,0 0.87701,1.65969 1.15601,3.68819 0.27899,2.02851 0.96054,4.56192 1.51457,5.62981 0.55402,1.06788 1.23695,2.98711 1.51761,4.26495 0.28066,1.27785 0.80862,2.32335 1.17323,2.32335 0.36462,0 0.88674,1.19298 1.16028,2.65105 0.27354,1.45808 0.7457,2.65106 1.04925,2.65106 0.30355,0 1.00187,1.36339 1.55183,3.02977 0.54995,1.66637 1.2862,3.02977 1.63612,3.02977 0.34991,0 0.63621,0.46954 0.63621,1.04342 0,0.57388 0.49383,1.45327 1.09742,1.9542 0.60358,0.50093 1.50391,2.1617 2.00074,3.6906 0.49682,1.5289 1.36638,3.05239 1.93235,3.38554 0.56597,0.33314 1.02903,1.10006 1.02903,1.70425 0,0.60419 0.2995,1.09852 0.66555,1.09852 0.36605,0 1.07896,0.99806 1.58424,2.2179 0.50527,1.21985 1.39875,2.40213 1.9855,2.62728 0.58675,0.22516 1.06681,0.77241 1.06681,1.21612 0,0.44371 1.02255,1.80632 2.27233,3.02802 1.24978,1.2217 2.27233,2.49053 2.27233,2.81963 0,0.93866 18.58366,19.14622 19.54171,19.14622 0.47077,0 1.22079,0.6817 1.6667,1.51489 0.44591,0.83318 1.15447,1.51488 1.57459,1.51488 0.42012,0 1.64749,0.81936 2.72749,1.82079 1.08,1.00143 2.85458,2.27907 3.94351,2.8392 1.08894,0.56013 2.15031,1.21889 2.35861,1.46392 0.2083,0.24502 2.08297,1.42217 4.16594,2.61589 2.08297,1.19372 3.96105,2.41537 4.17352,2.71479 0.21248,0.29941 1.32024,0.77879 2.46169,1.06528 1.14146,0.28649 2.07538,0.82479 2.07538,1.19622 0,0.37143 0.40366,0.67533 0.89703,0.67533 0.8709,0 5.71841,2.03735 9.84201,4.13647 1.11565,0.56793 3.92765,1.45761 6.24891,1.97708 2.32125,0.51948 4.22046,1.21937 4.22046,1.55533 0,0.33595 1.70425,0.8369 3.78722,1.11321 2.08296,0.27632 3.78721,0.76586 3.78721,1.08788 0,0.32202 2.13031,0.82735 4.73402,1.12295 2.60371,0.29561 5.12633,0.85407 5.60581,1.24103 2.55478,2.06178 46.44915,2.03955 49.04599,-0.0249 0.457,-0.3633 2.78542,-0.89688 5.17427,-1.18573 2.38884,-0.28886 4.51495,-0.80286 4.7247,-1.14223 0.20974,-0.33936 1.91935,-0.84767 3.79915,-1.12957 1.87979,-0.28188 3.4178,-0.83248 3.4178,-1.22355 0,-0.39106 0.67681,-0.71103 1.50403,-0.71103 2.25652,0 8.34273,-1.74729 8.34273,-2.3951 0,-0.31132 1.19298,-0.78984 2.65106,-1.06337 1.45807,-0.27354 2.65105,-0.80026 2.65105,-1.17049 0,-0.37023 0.42116,-0.67314 0.93593,-0.67314 1.05446,0 9.07946,-3.87016 9.67586,-4.66631 0.21247,-0.28363 1.34776,-0.757 2.52286,-1.05193 1.1751,-0.29493 2.31592,-1.00365 2.53514,-1.57494 0.21923,-0.57129 0.85646,-1.0387 1.41608,-1.0387 0.55962,0 1.29006,-0.44608 1.62321,-0.99128 0.33314,-0.54521 1.71348,-1.43869 3.0674,-1.9855 1.35393,-0.54682 2.4617,-1.27075 2.4617,-1.60872 0,-0.33798 0.67693,-0.82937 1.5043,-1.09196 0.82737,-0.2626 2.57017,-1.43998 3.8729,-2.61641 1.30273,-1.17643 3.83302,-3.40133 5.62288,-4.94423 3.0643,-2.64149 8.46448,-7.92591 14.40707,-14.09826 1.44003,-1.4957 2.61824,-3.08444 2.61824,-3.53052 0,-0.44609 0.98168,-1.63709 2.18151,-2.64669 1.19984,-1.00959 2.41578,-2.57371 2.7021,-3.47582 0.28632,-0.90211 0.79711,-1.6402 1.13509,-1.6402 0.33797,0 1.0619,-1.10777 1.60872,-2.4617 0.54681,-1.35392 1.44029,-2.73426 1.9855,-3.0674 0.5452,-0.33315 0.99128,-1.06359 0.99128,-1.62321 0,-0.55962 0.51128,-1.21368 1.13617,-1.45348 0.62489,-0.23979 1.13616,-0.90513 1.13616,-1.47853 0,-1.88457 2.78886,-3.64129 5.84771,-3.6835 3.91454,-0.054 7.02939,2.68529 7.16222,6.29869 0.11182,3.04211 -0.71929,5.95424 -1.69932,5.95424 -0.38851,0 -0.70639,0.45912 -0.70639,1.02027 0,0.56114 -0.6817,1.80627 -1.51489,2.76694 -0.83319,0.96068 -1.51489,2.20581 -1.51489,2.76695 0,0.56115 -0.35154,1.02027 -0.78121,1.02027 -0.42967,0 -0.99635,0.59649 -1.2593,1.32553 -0.26295,0.72903 -0.93216,1.83679 -1.48713,2.46169 -2.09917,2.36362 -4.80423,5.91525 -4.80423,6.30775 0,0.22454 -1.61904,2.11326 -3.59786,4.19716 -1.97882,2.08389 -4.42833,4.94026 -5.44337,6.34747 -1.01504,1.40723 -2.99688,3.38907 -4.40411,4.40411 -1.40721,1.01504 -4.26358,3.46455 -6.34747,5.44337 -2.0839,1.97882 -3.97262,3.59786 -4.19716,3.59786 -0.3925,0 -3.94413,2.70506 -6.30775,4.80423 -0.6249,0.55497 -1.73266,1.22418 -2.46169,1.48713 -0.72904,0.26295 -1.32553,0.82963 -1.32553,1.2593 0,0.42967 -0.45912,0.78121 -1.02027,0.78121 -0.56114,0 -1.80627,0.6817 -2.76695,1.51489 -0.96067,0.83319 -2.2058,1.51489 -2.76694,1.51489 -0.56115,0 -1.02027,0.31878 -1.02027,0.70841 0,0.38963 -1.19297,1.1398 -2.65105,1.66705 -1.45808,0.52725 -2.65105,1.20392 -2.65105,1.50373 0,0.2998 -1.02255,0.76969 -2.27233,1.04419 -1.24978,0.27449 -2.27233,0.7589 -2.27233,1.07645 0,0.31755 -1.3634,0.98585 -3.02977,1.4851 -1.66638,0.49927 -3.02978,1.20783 -3.02978,1.57461 0,0.36677 -1.02254,0.89144 -2.27233,1.16594 -1.24978,0.27449 -2.27232,0.75861 -2.27232,1.07582 0,0.31719 -1.87468,0.99625 -4.16594,1.50902 -2.29127,0.51276 -4.16594,1.21 -4.16594,1.54941 0,0.33942 -1.61903,0.85967 -3.59785,1.15611 -1.97882,0.29644 -3.78458,0.84023 -4.01279,1.20842 -0.22821,0.36819 -3.12543,1.08161 -6.43826,1.58537 -3.31284,0.50376 -6.20935,1.1843 -6.43669,1.51232 -0.22733,0.32801 -3.38018,0.82443 -7.00634,1.10316 -3.62616,0.27873 -6.59301,0.79735 -6.59301,1.15248 0,0.35514 -7.49868,0.6457 -16.66375,0.6457 -9.16506,0 -16.66374,-0.29056 -16.66374,-0.6457 z"
       id="path4981"
       transform="matrix(0.26458333,0,0,0.26458333,22.657675,87.575643)" /><path
       style="fill:#ffd688;fill-opacity:1;stroke-width:0.757443"
       d="m 265.10508,309.03678 v -65.1401 h -65.1401 -65.14011 v -2.00773 c 0,-1.43957 1.17891,-3.14957 4.16594,-6.04267 2.29126,-2.21922 4.16594,-4.35455 4.16594,-4.7452 0,-1.01788 9.21025,-9.86399 10.79308,-10.36637 0.7293,-0.23147 1.326,-0.90916 1.326,-1.50598 0,-0.59681 0.49201,-1.08512 1.09335,-1.08512 0.60133,0 1.69737,-1.02255 2.43564,-2.27233 0.73826,-1.24978 1.9505,-2.27233 2.69387,-2.27233 0.74337,0 1.35158,-0.35421 1.35158,-0.78714 0,-1.04939 11.76775,-12.84683 12.8145,-12.84683 0.45071,0 0.81947,-0.6817 0.81947,-1.51489 0,-0.83319 0.34085,-1.51489 0.75744,-1.51489 0.95583,0 3.78722,-2.79323 3.78722,-3.73617 0,-0.38852 0.6817,-0.92276 1.51489,-1.18721 0.83318,-0.26444 1.51652,-0.88389 1.51851,-1.37656 0.004,-1.02392 8.19052,-9.60636 9.16303,-9.60636 0.87783,0 7.49709,-6.68415 7.49709,-7.57059 0,-0.39256 0.51127,-0.51755 1.13616,-0.27775 0.6249,0.23979 1.13617,0.0587 1.13617,-0.4025 0,-0.60666 18.42855,-0.83848 66.65499,-0.83848 h 66.65499 v 66.98901 c 0,43.8423 -0.26171,67.15077 -0.75744,67.45714 -0.41659,0.25747 -0.75744,1.12971 -0.75744,1.93831 0,0.8086 -0.34993,1.47019 -0.77763,1.47019 -0.97935,0 -6.03936,4.56097 -6.03936,5.44373 0,0.92564 -6.61371,7.4328 -7.55449,7.4328 -0.42757,0 -0.77738,0.47152 -0.77738,1.04782 0,0.5763 -0.6817,1.22609 -1.51489,1.44398 -0.83319,0.21788 -1.51489,0.90599 -1.51489,1.52913 0,0.62313 -1.02254,1.48944 -2.27233,1.92512 -1.52921,0.53308 -2.27232,1.30043 -2.27232,2.34642 0,1.04932 -0.49217,1.55429 -1.51489,1.55429 -0.83319,0 -1.51489,0.29479 -1.51489,0.65509 0,1.06662 -12.28269,12.97888 -13.38248,12.97888 -0.55491,0 -1.00894,0.6817 -1.00894,1.51489 0,0.97626 -0.50496,1.51489 -1.4202,1.51489 -0.95777,0 -1.56178,0.70786 -1.85499,2.17388 -0.26632,1.33162 -1.03668,2.33129 -1.98829,2.58014 -0.85442,0.22344 -1.5535,0.94944 -1.5535,1.61333 0,0.66389 -0.51128,1.20708 -1.13617,1.20708 -0.62489,0 -1.13616,0.34982 -1.13616,0.77738 0,0.75881 -3.73725,4.49076 -9.84076,9.82682 -1.66778,1.45808 -3.0331,3.07711 -3.03406,3.59786 -7.5e-4,0.52074 -0.65907,0.9468 -1.4625,0.9468 -0.80343,0 -1.97205,0.51127 -2.59694,1.13616 -0.62489,0.6249 -1.67179,1.13617 -2.32644,1.13617 -1.07283,0 -1.19027,-6.42679 -1.19027,-65.14011 z"
       id="path4983"
       transform="matrix(0.26458333,0,0,0.26458333,22.657675,87.575643)" /><path
       style="fill:#ffd688;fill-opacity:1;stroke-width:0.535593"
       d="m 390.983,306.35928 c 0,-0.29457 -0.37874,-0.53559 -0.84165,-0.53559 -1.08245,0 -2.37191,-1.28946 -2.37191,-2.37191 0,-0.46291 -0.24102,-0.84165 -0.53559,-0.84165 -0.69997,0 -0.69997,-6.26231 0,-6.69492 0.29457,-0.18205 0.53559,-1.16034 0.53559,-2.17398 0,-1.01363 0.24102,-1.84296 0.53559,-1.84296 0.29458,0 0.5356,-0.96407 0.5356,-2.14238 0,-1.1783 0.24101,-2.14237 0.53559,-2.14237 0.29458,0 0.53559,-0.72305 0.53559,-1.60678 0,-0.88373 0.24102,-1.60678 0.5356,-1.60678 0.29457,0 0.53559,-0.36956 0.53559,-0.82124 0,-0.45168 0.83552,-1.65677 1.85672,-2.67797 1.62996,-1.62995 2.18815,-1.85672 4.5704,-1.85672 2.38224,0 2.94043,0.22677 4.57039,1.85672 1.0212,1.0212 1.85672,2.22629 1.85672,2.67797 0,0.45168 0.24102,0.82124 0.5356,0.82124 0.29457,0 0.53559,0.96407 0.53559,2.14237 0,1.17831 -0.24102,2.14238 -0.53559,2.14238 -0.29458,0 -0.5356,0.96407 -0.5356,2.14237 0,1.1783 -0.24101,2.14237 -0.53559,2.14237 -0.29457,0 -0.53559,0.72305 -0.53559,1.60678 0,0.88373 -0.24102,1.60678 -0.53559,1.60678 -0.29458,0 -0.5356,0.96407 -0.5356,2.14237 0,1.17831 -0.24102,2.14238 -0.53559,2.14238 -0.29458,0 -0.53559,0.48203 -0.53559,1.07118 0,0.58916 -0.24102,1.07119 -0.5356,1.07119 -0.29457,0 -0.53559,0.37874 -0.53559,0.84165 0,1.08245 -1.28946,2.37191 -2.37191,2.37191 -0.46291,0 -0.84165,0.24102 -0.84165,0.53559 0,0.29458 -1.20508,0.53559 -2.67797,0.53559 -1.47288,0 -2.67796,-0.24101 -2.67796,-0.53559 z"
       id="path4985"
       transform="matrix(0.26458333,0,0,0.26458333,22.657675,87.575643)" /></g></svg>
