<?xml version="1.0" encoding="UTF-8" standalone="no"?>
<svg
   version="1.0"
   width="1316.7512pt"
   height="1350pt"
   viewBox="0 0 1316.7512 1350"
   preserveAspectRatio="xMidYMid"
   id="svg1296"
   sodipodi:docname="uptime-3.svg"
   inkscape:version="1.2.2 (1:1.2.2+202212051552+b0a8486541)"
   inkscape:dataloss="true"
   xmlns:inkscape="http://www.inkscape.org/namespaces/inkscape"
   xmlns:sodipodi="http://sodipodi.sourceforge.net/DTD/sodipodi-0.dtd"
   xmlns="http://www.w3.org/2000/svg"
   xmlns:svg="http://www.w3.org/2000/svg">
  <defs
     id="defs1300" />
  <sodipodi:namedview
     id="namedview1298"
     pagecolor="#505050"
     bordercolor="#ffffff"
     borderopacity="1"
     inkscape:showpageshadow="0"
     inkscape:pageopacity="0"
     inkscape:pagecheckerboard="1"
     inkscape:deskcolor="#505050"
     inkscape:document-units="pt"
     showgrid="false"
     inkscape:zoom="0.32593203"
     inkscape:cx="1003.2767"
     inkscape:cy="977.1976"
     inkscape:window-width="1920"
     inkscape:window-height="1164"
     inkscape:window-x="0"
     inkscape:window-y="0"
     inkscape:window-maximized="1"
     inkscape:current-layer="svg1296" />
  <metadata
     id="metadata1274">
Created by potrace 1.10, written by Peter Selinger 2001-2011
</metadata>
  <g
     transform="matrix(0.1,0,0,-0.1,-15.395819,1509.001)"
     fill="#000000"
     stroke="none"
     id="g1294"
     style="fill:#ff6922;fill-opacity:1">
    <path
       d="m 5898,13828 c -618,-825 -824,-1106 -816,-1115 8,-10 92,-13 367,-13 392,0 413,-3 483,-60 19,-16 46,-51 59,-77 l 24,-48 3,-990 c 3,-1126 6,-1078 -72,-1159 -44,-45 -114,-76 -171,-76 -83,0 -176,59 -211,134 l -24,51 v 857 c 0,765 -2,858 -16,872 -14,14 -72,16 -495,16 -317,0 -495,4 -524,11 -50,13 -113,63 -146,116 -33,54 -33,174 1,229 14,21 141,193 282,382 142,189 256,348 252,353 -7,12 -22,8 -139,-38 -141,-55 -455,-205 -580,-278 -33,-19 -69,-39 -80,-45 -134,-69 -456,-288 -645,-439 -496,-394 -948,-912 -1265,-1449 -151,-256 -298,-559 -385,-792 -15,-39 -35,-89 -56,-138 -8,-18 -14,-39 -14,-47 0,-8 -6,-29 -14,-47 -31,-71 -103,-326 -141,-498 -8,-36 -21,-96 -30,-135 -9,-38 -20,-97 -25,-130 -5,-33 -13,-85 -19,-115 -85,-458 -83,-1153 5,-1650 42,-240 107,-512 170,-720 25,-82 33,-106 67,-195 8,-22 37,-96 63,-165 59,-157 92,-229 207,-457 72,-144 96,-183 111,-183 11,0 92,29 180,64 152,60 307,121 386,150 105,39 482,162 645,211 33,10 78,23 100,30 89,28 118,35 320,84 116,29 228,57 250,63 22,6 60,14 85,18 25,4 65,12 90,18 210,50 581,115 845,147 72,9 182,22 245,30 187,23 420,43 665,57 302,17 1306,17 1610,0 426,-23 970,-85 1345,-152 30,-5 96,-17 145,-25 50,-9 117,-22 150,-29 33,-8 96,-21 140,-31 44,-9 105,-23 135,-30 30,-8 150,-37 265,-65 116,-28 221,-54 235,-59 14,-4 52,-16 85,-26 33,-9 78,-23 100,-30 22,-6 65,-19 95,-28 91,-27 531,-174 590,-197 90,-35 121,-46 208,-79 71,-27 141,-54 227,-90 61,-26 78,-31 94,-31 13,0 46,58 128,223 110,221 158,334 278,657 45,121 141,486 178,675 8,44 21,107 27,140 6,33 15,92 20,130 5,39 13,106 19,150 22,175 32,353 32,586 0,359 -30,669 -97,1009 -43,218 -133,559 -180,683 -8,20 -20,54 -28,75 -8,20 -27,71 -42,112 -167,463 -454,972 -792,1402 -278,356 -626,697 -990,971 -129,97 -465,319 -532,350 -8,4 -42,23 -75,43 -86,50 -403,205 -515,252 -159,66 -190,76 -201,65 -7,-7 59,-102 203,-293 377,-499 352,-459 352,-562 0,-70 -3,-82 -30,-120 -39,-56 -94,-98 -140,-109 -22,-4 -256,-9 -521,-9 -424,0 -483,-2 -497,-16 -14,-14 -16,-107 -16,-873 v -857 l -26,-52 c -37,-75 -127,-132 -209,-132 -57,0 -127,31 -171,76 -78,81 -75,33 -72,1159 l 3,990 24,48 c 13,26 40,61 59,77 69,57 92,60 471,60 326,0 391,3 391,19 0,17 -1653,2206 -1668,2209 -12,2 -241,-296 -844,-1100 z M 3958,9537 c 24,-12 57,-39 74,-59 58,-74 58,-65 58,-979 0,-636 3,-838 12,-847 8,-8 54,-12 143,-12 116,0 136,-3 181,-24 82,-38 144,-133 144,-220 0,-87 -75,-192 -157,-220 -40,-14 -118,-16 -572,-16 h -526 l -50,24 c -148,68 -186,265 -74,377 68,68 103,79 261,79 98,0 139,4 144,12 13,21 11,1239 -2,1256 -10,14 -22,11 -95,-22 -126,-58 -208,-51 -295,26 -107,94 -97,283 19,365 59,42 546,281 582,286 48,7 107,-3 153,-26 z m 2141,22 c 181,-29 329,-166 385,-358 14,-48 16,-150 16,-835 0,-742 -1,-784 -19,-849 -49,-169 -162,-284 -337,-341 -46,-15 -103,-16 -505,-14 l -454,3 -72,30 c -125,52 -219,149 -269,277 l -29,73 v 815 c 0,773 1,818 19,869 61,176 204,302 373,331 72,12 817,12 892,-1 z m 2003,-16 c 82,-31 172,-95 217,-156 46,-62 62,-93 86,-167 17,-51 18,-110 17,-865 -1,-777 -2,-812 -21,-865 -30,-85 -48,-116 -107,-179 -57,-62 -135,-109 -223,-135 -82,-24 -907,-24 -978,0 -92,31 -133,55 -196,113 -69,65 -107,126 -137,221 -19,60 -20,92 -20,855 0,698 2,797 16,841 62,191 203,323 376,353 29,5 247,8 483,7 411,-2 433,-3 487,-23 z m 1183,-264 c 72,-51 99,-106 99,-194 -1,-117 -51,-184 -167,-225 -64,-23 -96,-19 -175,17 -59,28 -93,67 -116,133 -20,57 -20,96 -1,149 22,63 51,98 108,132 47,27 59,30 127,27 68,-3 80,-6 125,-39 z m 1425,9 c 32,-20 67,-51 85,-78 27,-41 30,-53 30,-125 0,-58 -5,-89 -19,-115 -10,-19 -356,-373 -769,-786 -702,-701 -756,-751 -805,-768 -137,-47 -279,33 -311,177 -10,47 -10,64 5,114 16,58 18,60 773,816 510,511 769,764 796,777 25,12 62,19 100,20 51,0 70,-5 115,-32 z m -10,-1436 c 173,-85 180,-321 12,-419 -38,-23 -59,-28 -112,-28 -75,0 -121,18 -170,67 -45,46 -61,83 -67,150 -17,185 170,313 337,230 z"
       id="path1276"
       style="fill:#ff6922;fill-opacity:1" />
    <path
       d="m 5364,9083 -62,-4 -6,-112 c -9,-168 -5,-1279 5,-1304 l 9,-23 h 343 c 253,0 346,3 355,12 17,17 17,1413 1,1424 -13,7 -549,14 -645,7 z"
       id="path1278"
       style="fill:#ff6922;fill-opacity:1" />
    <path
       d="m 7242,9079 -22,-8 v -700 c 0,-385 3,-706 6,-715 5,-14 46,-16 355,-16 h 349 l 9,23 c 11,29 9,1403 -2,1414 -11,10 -667,12 -695,2 z"
       id="path1280"
       style="fill:#ff6922;fill-opacity:1" />
    <path
       d="m 6535,6193 c -669,-18 -1403,-82 -1825,-158 -112,-21 -267,-49 -405,-75 -22,-5 -71,-15 -110,-24 -38,-9 -101,-23 -140,-30 -84,-17 -272,-62 -335,-81 -25,-7 -74,-20 -110,-30 -78,-21 -112,-31 -305,-90 -193,-60 -271,-86 -375,-125 -47,-17 -98,-35 -115,-40 -16,-4 -91,-33 -165,-64 -74,-31 -138,-56 -142,-56 -5,0 -38,-14 -75,-31 -91,-41 -118,-53 -188,-85 -115,-51 -472,-233 -500,-254 -5,-4 -41,-24 -80,-45 -38,-20 -77,-44 -86,-51 -8,-8 -18,-14 -21,-14 -14,0 -114,-74 -120,-88 -8,-21 -10,-1534 -2,-1556 10,-25 29,-20 117,32 155,92 563,287 787,376 63,26 124,50 135,55 11,5 38,15 60,24 22,8 65,25 95,38 52,21 499,169 620,205 30,9 73,22 95,29 22,7 60,18 85,24 25,6 104,27 175,45 72,19 166,42 210,51 44,9 100,23 125,30 107,30 542,115 665,130 28,3 84,13 125,20 41,8 131,21 200,30 69,8 177,22 240,30 309,38 744,72 1045,80 110,3 280,8 377,11 310,11 1027,-20 1443,-61 327,-33 764,-92 1000,-136 61,-12 133,-24 160,-29 28,-4 70,-13 95,-18 25,-6 81,-18 125,-27 44,-9 105,-23 135,-30 30,-8 84,-21 120,-29 113,-26 342,-85 415,-107 39,-11 86,-24 105,-28 19,-5 46,-13 60,-19 14,-5 50,-17 80,-26 150,-45 493,-161 545,-185 11,-5 38,-16 60,-24 110,-43 376,-151 425,-174 184,-85 586,-289 612,-311 7,-6 25,-13 40,-17 23,-6 28,-3 33,17 3,12 4,368 3,790 -3,754 -3,767 -23,782 -38,28 -301,185 -390,232 -128,68 -449,224 -461,224 -2,0 -28,12 -57,26 -43,21 -212,89 -419,169 -157,61 -260,97 -433,150 -82,26 -168,52 -190,59 -236,75 -578,159 -980,241 -514,104 -1183,180 -1805,205 -274,11 -622,17 -755,13 z"
       id="path1282"
       style="fill:#ff6922;fill-opacity:1" />
    <path
       d="m 6140,4011 c -193,-8 -318,-17 -620,-46 -240,-24 -416,-44 -515,-60 -49,-8 -128,-19 -175,-26 -100,-13 -152,-22 -240,-38 -36,-7 -101,-19 -145,-28 -44,-8 -105,-21 -136,-29 -30,-8 -69,-14 -85,-14 -42,0 -62,-15 -48,-37 14,-22 367,-200 504,-254 58,-23 119,-47 135,-54 17,-7 48,-19 70,-28 22,-8 58,-22 80,-31 138,-55 531,-161 780,-211 428,-86 929,-115 1385,-80 301,23 468,48 840,129 115,26 457,127 550,164 14,5 43,17 65,25 254,98 320,128 562,250 116,58 163,87 163,99 0,10 -9,19 -22,22 -13,2 -57,11 -98,19 -130,27 -294,58 -465,86 -261,44 -679,92 -1105,127 -222,18 -1155,27 -1480,15 z"
       id="path1284"
       style="fill:#ff6922;fill-opacity:1" />
    <path
       d="m 161,3531 c -11,-7 -7,-23 24,-83 273,-535 279,-550 283,-623 l 3,-70 -161,-320 c -88,-176 -158,-325 -156,-332 4,-10 169,-13 823,-13 450,0 824,4 831,8 18,12 9,19 -253,192 -126,83 -241,160 -255,170 -14,9 -81,54 -148,99 -67,45 -133,97 -146,114 -49,66 -50,79 -53,477 -3,283 -6,376 -16,382 -17,11 -759,10 -776,-1 z"
       id="path1286"
       style="fill:#ff6922;fill-opacity:1" />
    <path
       d="m 12543,3532 c -10,-6 -13,-99 -16,-382 -2,-289 -6,-384 -17,-414 -22,-59 -81,-111 -270,-237 -96,-64 -204,-136 -240,-159 -36,-24 -119,-79 -185,-123 -148,-99 -160,-108 -143,-119 18,-11 1629,-10 1647,1 12,8 -17,72 -147,334 -155,312 -162,327 -162,385 0,58 6,73 161,382 126,252 158,324 148,331 -17,11 -759,12 -776,1 z"
       id="path1288"
       style="fill:#ff6922;fill-opacity:1" />
    <path
       d="m 2340,3177 c -78,-35 -322,-152 -365,-174 -214,-111 -315,-171 -315,-188 0,-11 101,-95 113,-95 2,0 139,-89 303,-199 164,-109 304,-196 311,-194 11,4 13,90 11,431 -3,464 -1,446 -58,419 z"
       id="path1290"
       style="fill:#ff6922;fill-opacity:1" />
    <path
       d="m 11087,3183 c -4,-3 -7,-196 -7,-429 0,-340 3,-423 13,-427 7,-3 148,85 312,194 165,109 301,199 303,199 12,0 112,85 112,95 0,27 -391,237 -633,341 -84,36 -90,38 -100,27 z"
       id="path1292"
       style="fill:#ff6922;fill-opacity:1" />
  </g>
  <path
     style="fill:#ffd688;stroke-width:2.30109"
     d="M 1099.9225,921.33127 C 1067.7737,908.00055 995.42302,884.5296 956.10427,874.6758 851.3187,848.41537 748.10314,837.84795 624.74682,840.75067 476.13991,844.2477 358.8838,866.87212 228.15619,917.27242 c -14.36303,5.53748 -27.5569,10.06815 -29.31971,10.06815 -3.99216,0 -25.06888,-41.7342 -36.60629,-72.48442 C 140.58133,797.15617 130.3702,738.4165 130.429,671.91923 c 0.0439,-49.60906 3.26643,-76.59387 14.79452,-123.88561 9.80305,-40.21513 18.19618,-62.99342 38.71801,-105.07758 29.05068,-59.57432 59.91253,-102.22683 107.46731,-148.52481 44.1925,-43.02459 80.41136,-68.55261 135.44396,-95.46456 37.46302,-18.3201 47.7065,-22.31394 43.4402,-16.93695 -11.84812,14.93268 -49.98255,68.00482 -51.92076,72.25875 -3.49479,7.67019 -0.49492,20.17376 6.39441,26.65217 5.78916,5.44385 6.85312,5.56655 58.06737,6.69601 l 52.17016,1.15056 1.49744,19.55928 c 0.82359,10.75762 1.6002,50.40161 1.72582,88.09778 0.2504,75.14968 0.49496,76.57468 14.10876,82.21371 9.80309,4.06058 21.58076,1.09516 28.55114,-7.18866 l 5.89144,-7.00158 -0.0115,-105.09848 -0.0115,-105.09846 -5.35379,-6.69081 c -6.55639,-8.19381 -17.6313,-10.1565 -58.68068,-10.3994 l -28.39023,-0.16798 11.00472,-15.53238 C 524.90639,193.85777 652.93839,24.049245 656.29486,21.263623 c 2.63325,-2.185414 4.82141,-0.632958 11.49147,8.153043 4.53136,5.968857 41.46681,54.860871 82.07876,108.648924 l 73.83988,97.79647 -39.51645,1.43887 -39.5164,1.43887 -7.61278,8.30697 -7.61277,8.307 0.0138,99.55606 c 0.009,62.77891 0.91031,102.788 2.44228,108.30489 5.18549,18.67349 29.10263,23.36882 41.814,8.20878 l 6.30113,-7.51491 0.60217,-87.56069 0.6012,-87.56069 52.00275,-1.15056 c 53.75453,-1.18929 55.42095,-1.49099 63.55402,-11.50546 4.10475,-5.0543 3.5526,-21.10751 -0.95197,-27.67637 -2.14583,-3.12922 -14.14463,-19.49166 -26.66408,-36.361 -12.51937,-16.86934 -22.23712,-31.19691 -21.59497,-31.83905 1.58707,-1.58707 39.69817,15.49062 63.39172,28.40598 60.603,33.0347 120.30458,83.56173 162.78968,137.77323 31.5808,40.29753 65.4788,101.48837 82.4794,148.88746 42.1395,117.4892 41.1934,247.92715 -2.633,362.98636 -7.2178,18.94905 -31.9815,71.51715 -33.5568,71.23387 -0.3058,-0.0547 -9.3577,-3.74962 -20.1154,-8.2104 z M 433.98619,786.05347 c 6.20727,-6.2073 7.82372,-9.6672 7.82372,-16.74622 0,-16.68225 -12.38925,-26.05412 -34.44249,-26.05412 h -11.57938 v -39.89811 c 0,-21.94396 -0.69026,-62.06258 -1.53393,-89.15247 l -1.53394,-49.25438 -6.34289,-6.34289 c -10.2296,-10.22963 -20.21271,-8.83112 -52.50143,7.35473 -15.07421,7.55647 -29.50166,16.46474 -32.17993,19.86962 -6.85035,8.70881 -6.44098,21.72202 0.96005,30.51765 8.56896,10.18362 18.01321,11.17317 36.18001,3.79082 3.77636,-1.53458 4.02692,2.24455 4.02692,60.73931 v 62.37572 h -11.57938 c -26.96669,0 -41.34867,16.84135 -31.96653,37.4329 5.5675,12.2193 10.12093,13.06357 70.81386,13.12994 l 56.03162,0.0615 z m 172.35189,3.46118 c 5.0624,-2.34383 11.99704,-7.23968 15.4103,-10.87965 13.04619,-13.9128 13.35787,-16.39785 13.30283,-106.06658 -0.0557,-90.83775 -0.29861,-92.55904 -15.15252,-107.39691 -12.26625,-12.25302 -18.19789,-13.38812 -69.85944,-13.3687 -51.49543,0.0184 -56.37729,0.91897 -68.81647,12.68144 -16.14378,15.26555 -16.29506,16.26542 -16.35141,108.08417 -0.0548,89.06408 0.0472,89.90258 12.73685,104.95328 12.38062,14.68395 19.37098,16.25445 72.35307,16.25445 41.06779,0 48.36355,-0.55155 56.37679,-4.2615 z m 199.21172,-3.69128 c 13.24192,-9.37177 17.78122,-16.18567 20.52082,-30.80355 2.88308,-15.38362 2.9829,-154.56725 0.1197,-166.91241 -2.49337,-10.75062 -7.69335,-18.14706 -19.44435,-27.65802 l -8.69385,-7.03646 h -54.6341 -54.63412 l -9.26919,6.42357 c -5.09808,3.53294 -11.9991,11.43926 -15.33564,17.56958 l -6.06639,11.14606 v 83.17714 c 0,90.56749 0.30229,92.98767 13.35336,106.90572 13.29423,14.17725 19.35916,15.37455 74.47214,14.70097 l 49.85749,-0.60937 z m 184.34805,-95.15052 77.80945,-77.89231 v -11.41982 c 0,-9.46474 -1.0834,-12.4503 -6.328,-17.43895 -7.9454,-7.55748 -16.0718,-9.6335 -24.8266,-6.34235 -8.7671,3.29574 -153.96515,147.99721 -158.86385,158.32054 -4.49918,9.48124 -2.8167,17.72501 5.37502,26.33719 5.00003,5.2566 7.96673,6.32797 17.5218,6.32797 h 11.50275 z m 71.32975,71.5643 c 7.828,-8.41463 9.6246,-17.11229 5.5494,-26.86564 -6.2513,-14.96134 -25.5471,-19.6604 -37.9335,-9.23787 -8.3565,7.03149 -11.2505,18.74511 -7.1043,28.75493 4.0173,9.69856 10.7184,13.67655 23.0386,13.67655 8.5621,0 11.6781,-1.19865 16.4498,-6.32797 z M 915.02542,620.13292 c 6.85358,-4.49065 10.2891,-17.20792 7.43805,-27.53357 -5.56972,-20.17198 -34.76692,-22.52756 -44.55742,-3.59479 -12.19448,23.58151 14.48767,45.95721 37.11937,31.12836 z"
     id="path5077" />
  <path
     style="fill:#ffd688;stroke-width:2.30109"
     d="m 515.44489,673.33816 v -69.91497 l 5.17746,-1.3875 c 6.76806,-1.81377 28.83452,-1.79126 48.32296,0.0493 l 15.53238,1.46693 v 69.8506 69.8506 h -34.5164 -34.5164 z"
     id="path5079" />
  <path
     style="fill:#ffd688;stroke-width:2.30109"
     d="m 708.73672,673.35742 v -69.89571 l 7.19092,-1.43819 c 9.30428,-1.86085 37.50706,-1.84699 51.16583,0.0251 l 10.67603,1.46332 v 69.87057 69.87057 h -34.51637 -34.51641 z"
     id="path5081" />
  <path
     style="fill:#ffd688;stroke-width:2.30109"
     d="m 128.86122,1102.1224 v -78.1931 l 12.08074,-7.6567 C 201.11199,978.1371 299.94652,939.85282 391.18585,919.33875 526.53328,888.9075 679.79323,882.8895 828.3936,902.1711 c 122.9538,15.95377 242.9834,54.08407 334.2338,106.1774 l 24.7367,14.1218 v 78.7413 78.7415 l -28.6988,-14.8185 c -110.5663,-57.0902 -248.51165,-92.6942 -405.05727,-104.5463 -44.06102,-3.3357 -148.89483,-3.3069 -192.14127,0.053 -154.90095,12.0345 -292.36782,47.8027 -404.41714,105.2276 l -28.1884,14.4464 z"
     id="path5083" />
  <path
     style="fill:#ffd688;stroke-width:2.30109"
     d="m 598.28425,1198.6204 c -37.76062,-4.2735 -95.39174,-18.8904 -132.31287,-33.5581 -25.13978,-9.9874 -60.97896,-27.7028 -60.97896,-30.1421 0,-2.4839 62.33198,-13.3224 111.66818,-19.4172 36.79548,-4.5456 52.26271,-5.1152 140.30152,-5.1672 98.59808,-0.058 110.4717,0.5798 174.88313,9.3959 35.49345,4.858 77.87527,12.6414 80.15325,14.72 2.33925,2.1346 -38.00033,22.147 -66.34673,32.9145 -40.47982,15.3764 -87.55439,26.6928 -130.49635,31.3705 -25.77797,2.8079 -91.61177,2.7424 -116.87117,-0.1163 z"
     id="path5085" />
  <path
     style="fill:#ffd688;stroke-width:2.30109"
     d="m 2.3010933,1296.6332 c 0,-0.6509 6.7306977,-14.6152 14.9571067,-31.0319 9.590473,-19.1388 14.957106,-32.6452 14.957106,-37.643 0,-4.9538 -5.483301,-18.9116 -15.044823,-38.2968 -8.2746513,-16.7761 -14.5519231,-30.995 -13.9494916,-31.5975 2.0634166,-2.0634 48.9508176,-3.5396 61.7264566,-1.9434 l 12.764754,1.5948 0.943508,38.4106 c 0.589432,23.9962 1.988145,40.3059 3.727215,43.4612 1.531042,2.7778 20.601385,17.0158 42.378545,31.64 l 39.59484,26.5894 H 83.328697 c -44.56518,0 -81.0276037,-0.5325 -81.0276037,-1.1834 z"
     id="path5087" />
  <path
     style="fill:#ffd688;stroke-width:2.30109"
     d="m 186.45412,1251.542 c -33.56529,-21.8968 -35.34192,-23.4199 -31.06476,-26.6317 7.20419,-5.4097 65.48279,-33.7438 66.76606,-32.4606 0.63773,0.6378 0.87613,19.42 0.52979,41.7384 l -0.62971,40.5789 z"
     id="path5089" />
  <path
     style="fill:#ffd688;stroke-width:2.30109"
     d="m 1094.6249,1271.0421 c -2.2479,-2.248 -1.948,-72.6725 0.3247,-76.2536 1.4254,-2.2458 6.0653,-1.0139 19.8623,5.2736 26.2278,11.9524 49.8999,26.2798 48.136,29.1339 -1.5801,2.5566 -58.262,40.207 -63.6346,42.2687 -1.6955,0.6507 -3.8052,0.4605 -4.6884,-0.4226 z"
     id="path5091" />
  <path
     style="fill:#ffd688;stroke-width:2.30109"
     d="m 1156.4144,1295.8409 c 1.2024,-1.0866 17.9425,-12.5283 37.2005,-25.426 19.2579,-12.8978 37.1201,-26.1276 39.6938,-29.3995 4.2475,-5.3998 4.6827,-9.266 4.7147,-41.8808 0.019,-19.7626 1.0189,-37.4852 2.2211,-39.3836 1.7839,-2.8168 8.5145,-3.4516 36.592,-3.4516 18.9233,0 35.1996,0.7942 36.1697,1.765 0.9699,0.9708 -5.1732,15.9854 -13.6515,33.3659 -8.4784,17.3804 -15.3985,33.6717 -15.3782,36.2029 0.02,2.5313 6.7669,18.4268 14.9924,35.3235 8.2254,16.8968 14.9553,31.6525 14.9553,32.7906 0,1.1852 -34.1136,2.0693 -79.8479,2.0693 -44.6268,0 -78.8836,-0.8715 -77.6619,-1.9757 z"
     id="path5093" />
</svg>
