<?xml version="1.0" encoding="UTF-8" standalone="no"?>
<svg
   version="1.0"
   width="1316.7512pt"
   height="1283.8009pt"
   viewBox="0 0 1316.7512 1283.8009"
   preserveAspectRatio="xMidYMid"
   id="svg1296"
   sodipodi:docname="uptime-orange.png"
   inkscape:version="1.2.2 (1:1.2.2+202212051552+b0a8486541)"
   inkscape:dataloss="true"
   xmlns:inkscape="http://www.inkscape.org/namespaces/inkscape"
   xmlns:sodipodi="http://sodipodi.sourceforge.net/DTD/sodipodi-0.dtd"
   xmlns="http://www.w3.org/2000/svg"
   xmlns:svg="http://www.w3.org/2000/svg">
  <defs
     id="defs1300" />
  <sodipodi:namedview
     id="namedview1298"
     pagecolor="#505050"
     bordercolor="#ffffff"
     borderopacity="1"
     inkscape:showpageshadow="0"
     inkscape:pageopacity="0"
     inkscape:pagecheckerboard="1"
     inkscape:deskcolor="#505050"
     inkscape:document-units="pt"
     showgrid="false"
     inkscape:zoom="0.32593203"
     inkscape:cx="1003.2767"
     inkscape:cy="977.1976"
     inkscape:window-width="1920"
     inkscape:window-height="1164"
     inkscape:window-x="0"
     inkscape:window-y="0"
     inkscape:window-maximized="1"
     inkscape:current-layer="svg1296" />
  <metadata
     id="metadata1274">
Created by potrace 1.10, written by Peter Selinger 2001-2011
</metadata>
  <g
     transform="matrix(0.1,0,0,-0.1,-15.395819,1492.801)"
     fill="#000000"
     stroke="none"
     id="g1294"
     style="fill:#ff6922;fill-opacity:1">
    <path
       d="m 5898,13828 c -618,-825 -824,-1106 -816,-1115 8,-10 92,-13 367,-13 392,0 413,-3 483,-60 19,-16 46,-51 59,-77 l 24,-48 3,-990 c 3,-1126 6,-1078 -72,-1159 -44,-45 -114,-76 -171,-76 -83,0 -176,59 -211,134 l -24,51 v 857 c 0,765 -2,858 -16,872 -14,14 -72,16 -495,16 -317,0 -495,4 -524,11 -50,13 -113,63 -146,116 -33,54 -33,174 1,229 14,21 141,193 282,382 142,189 256,348 252,353 -7,12 -22,8 -139,-38 -141,-55 -455,-205 -580,-278 -33,-19 -69,-39 -80,-45 -134,-69 -456,-288 -645,-439 -496,-394 -948,-912 -1265,-1449 -151,-256 -298,-559 -385,-792 -15,-39 -35,-89 -56,-138 -8,-18 -14,-39 -14,-47 0,-8 -6,-29 -14,-47 -31,-71 -103,-326 -141,-498 -8,-36 -21,-96 -30,-135 -9,-38 -20,-97 -25,-130 -5,-33 -13,-85 -19,-115 -85,-458 -83,-1153 5,-1650 42,-240 107,-512 170,-720 25,-82 33,-106 67,-195 8,-22 37,-96 63,-165 59,-157 92,-229 207,-457 72,-144 96,-183 111,-183 11,0 92,29 180,64 152,60 307,121 386,150 105,39 482,162 645,211 33,10 78,23 100,30 89,28 118,35 320,84 116,29 228,57 250,63 22,6 60,14 85,18 25,4 65,12 90,18 210,50 581,115 845,147 72,9 182,22 245,30 187,23 420,43 665,57 302,17 1306,17 1610,0 426,-23 970,-85 1345,-152 30,-5 96,-17 145,-25 50,-9 117,-22 150,-29 33,-8 96,-21 140,-31 44,-9 105,-23 135,-30 30,-8 150,-37 265,-65 116,-28 221,-54 235,-59 14,-4 52,-16 85,-26 33,-9 78,-23 100,-30 22,-6 65,-19 95,-28 91,-27 531,-174 590,-197 90,-35 121,-46 208,-79 71,-27 141,-54 227,-90 61,-26 78,-31 94,-31 13,0 46,58 128,223 110,221 158,334 278,657 45,121 141,486 178,675 8,44 21,107 27,140 6,33 15,92 20,130 5,39 13,106 19,150 22,175 32,353 32,586 0,359 -30,669 -97,1009 -43,218 -133,559 -180,683 -8,20 -20,54 -28,75 -8,20 -27,71 -42,112 -167,463 -454,972 -792,1402 -278,356 -626,697 -990,971 -129,97 -465,319 -532,350 -8,4 -42,23 -75,43 -86,50 -403,205 -515,252 -159,66 -190,76 -201,65 -7,-7 59,-102 203,-293 377,-499 352,-459 352,-562 0,-70 -3,-82 -30,-120 -39,-56 -94,-98 -140,-109 -22,-4 -256,-9 -521,-9 -424,0 -483,-2 -497,-16 -14,-14 -16,-107 -16,-873 v -857 l -26,-52 c -37,-75 -127,-132 -209,-132 -57,0 -127,31 -171,76 -78,81 -75,33 -72,1159 l 3,990 24,48 c 13,26 40,61 59,77 69,57 92,60 471,60 326,0 391,3 391,19 0,17 -1653,2206 -1668,2209 -12,2 -241,-296 -844,-1100 z M 3958,9537 c 24,-12 57,-39 74,-59 58,-74 58,-65 58,-979 0,-636 3,-838 12,-847 8,-8 54,-12 143,-12 116,0 136,-3 181,-24 82,-38 144,-133 144,-220 0,-87 -75,-192 -157,-220 -40,-14 -118,-16 -572,-16 h -526 l -50,24 c -148,68 -186,265 -74,377 68,68 103,79 261,79 98,0 139,4 144,12 13,21 11,1239 -2,1256 -10,14 -22,11 -95,-22 -126,-58 -208,-51 -295,26 -107,94 -97,283 19,365 59,42 546,281 582,286 48,7 107,-3 153,-26 z m 2141,22 c 181,-29 329,-166 385,-358 14,-48 16,-150 16,-835 0,-742 -1,-784 -19,-849 -49,-169 -162,-284 -337,-341 -46,-15 -103,-16 -505,-14 l -454,3 -72,30 c -125,52 -219,149 -269,277 l -29,73 v 815 c 0,773 1,818 19,869 61,176 204,302 373,331 72,12 817,12 892,-1 z m 2003,-16 c 82,-31 172,-95 217,-156 46,-62 62,-93 86,-167 17,-51 18,-110 17,-865 -1,-777 -2,-812 -21,-865 -30,-85 -48,-116 -107,-179 -57,-62 -135,-109 -223,-135 -82,-24 -907,-24 -978,0 -92,31 -133,55 -196,113 -69,65 -107,126 -137,221 -19,60 -20,92 -20,855 0,698 2,797 16,841 62,191 203,323 376,353 29,5 247,8 483,7 411,-2 433,-3 487,-23 z m 1183,-264 c 72,-51 99,-106 99,-194 -1,-117 -51,-184 -167,-225 -64,-23 -96,-19 -175,17 -59,28 -93,67 -116,133 -20,57 -20,96 -1,149 22,63 51,98 108,132 47,27 59,30 127,27 68,-3 80,-6 125,-39 z m 1425,9 c 32,-20 67,-51 85,-78 27,-41 30,-53 30,-125 0,-58 -5,-89 -19,-115 -10,-19 -356,-373 -769,-786 -702,-701 -756,-751 -805,-768 -137,-47 -279,33 -311,177 -10,47 -10,64 5,114 16,58 18,60 773,816 510,511 769,764 796,777 25,12 62,19 100,20 51,0 70,-5 115,-32 z m -10,-1436 c 173,-85 180,-321 12,-419 -38,-23 -59,-28 -112,-28 -75,0 -121,18 -170,67 -45,46 -61,83 -67,150 -17,185 170,313 337,230 z"
       id="path1276"
       style="fill:#ff6922;fill-opacity:1" />
    <path
       d="m 5364,9083 -62,-4 -6,-112 c -9,-168 -5,-1279 5,-1304 l 9,-23 h 343 c 253,0 346,3 355,12 17,17 17,1413 1,1424 -13,7 -549,14 -645,7 z"
       id="path1278"
       style="fill:#ff6922;fill-opacity:1" />
    <path
       d="m 7242,9079 -22,-8 v -700 c 0,-385 3,-706 6,-715 5,-14 46,-16 355,-16 h 349 l 9,23 c 11,29 9,1403 -2,1414 -11,10 -667,12 -695,2 z"
       id="path1280"
       style="fill:#ff6922;fill-opacity:1" />
    <path
       d="m 6535,6193 c -669,-18 -1403,-82 -1825,-158 -112,-21 -267,-49 -405,-75 -22,-5 -71,-15 -110,-24 -38,-9 -101,-23 -140,-30 -84,-17 -272,-62 -335,-81 -25,-7 -74,-20 -110,-30 -78,-21 -112,-31 -305,-90 -193,-60 -271,-86 -375,-125 -47,-17 -98,-35 -115,-40 -16,-4 -91,-33 -165,-64 -74,-31 -138,-56 -142,-56 -5,0 -38,-14 -75,-31 -91,-41 -118,-53 -188,-85 -115,-51 -472,-233 -500,-254 -5,-4 -41,-24 -80,-45 -38,-20 -77,-44 -86,-51 -8,-8 -18,-14 -21,-14 -14,0 -114,-74 -120,-88 -8,-21 -10,-1534 -2,-1556 10,-25 29,-20 117,32 155,92 563,287 787,376 63,26 124,50 135,55 11,5 38,15 60,24 22,8 65,25 95,38 52,21 499,169 620,205 30,9 73,22 95,29 22,7 60,18 85,24 25,6 104,27 175,45 72,19 166,42 210,51 44,9 100,23 125,30 107,30 542,115 665,130 28,3 84,13 125,20 41,8 131,21 200,30 69,8 177,22 240,30 309,38 744,72 1045,80 110,3 280,8 377,11 310,11 1027,-20 1443,-61 327,-33 764,-92 1000,-136 61,-12 133,-24 160,-29 28,-4 70,-13 95,-18 25,-6 81,-18 125,-27 44,-9 105,-23 135,-30 30,-8 84,-21 120,-29 113,-26 342,-85 415,-107 39,-11 86,-24 105,-28 19,-5 46,-13 60,-19 14,-5 50,-17 80,-26 150,-45 493,-161 545,-185 11,-5 38,-16 60,-24 110,-43 376,-151 425,-174 184,-85 586,-289 612,-311 7,-6 25,-13 40,-17 23,-6 28,-3 33,17 3,12 4,368 3,790 -3,754 -3,767 -23,782 -38,28 -301,185 -390,232 -128,68 -449,224 -461,224 -2,0 -28,12 -57,26 -43,21 -212,89 -419,169 -157,61 -260,97 -433,150 -82,26 -168,52 -190,59 -236,75 -578,159 -980,241 -514,104 -1183,180 -1805,205 -274,11 -622,17 -755,13 z"
       id="path1282"
       style="fill:#ff6922;fill-opacity:1" />
    <path
       d="m 6140,4011 c -193,-8 -318,-17 -620,-46 -240,-24 -416,-44 -515,-60 -49,-8 -128,-19 -175,-26 -100,-13 -152,-22 -240,-38 -36,-7 -101,-19 -145,-28 -44,-8 -105,-21 -136,-29 -30,-8 -69,-14 -85,-14 -42,0 -62,-15 -48,-37 14,-22 367,-200 504,-254 58,-23 119,-47 135,-54 17,-7 48,-19 70,-28 22,-8 58,-22 80,-31 138,-55 531,-161 780,-211 428,-86 929,-115 1385,-80 301,23 468,48 840,129 115,26 457,127 550,164 14,5 43,17 65,25 254,98 320,128 562,250 116,58 163,87 163,99 0,10 -9,19 -22,22 -13,2 -57,11 -98,19 -130,27 -294,58 -465,86 -261,44 -679,92 -1105,127 -222,18 -1155,27 -1480,15 z"
       id="path1284"
       style="fill:#ff6922;fill-opacity:1" />
    <path
       d="m 161,3531 c -11,-7 -7,-23 24,-83 273,-535 279,-550 283,-623 l 3,-70 -161,-320 c -88,-176 -158,-325 -156,-332 4,-10 169,-13 823,-13 450,0 824,4 831,8 18,12 9,19 -253,192 -126,83 -241,160 -255,170 -14,9 -81,54 -148,99 -67,45 -133,97 -146,114 -49,66 -50,79 -53,477 -3,283 -6,376 -16,382 -17,11 -759,10 -776,-1 z"
       id="path1286"
       style="fill:#ff6922;fill-opacity:1" />
    <path
       d="m 12543,3532 c -10,-6 -13,-99 -16,-382 -2,-289 -6,-384 -17,-414 -22,-59 -81,-111 -270,-237 -96,-64 -204,-136 -240,-159 -36,-24 -119,-79 -185,-123 -148,-99 -160,-108 -143,-119 18,-11 1629,-10 1647,1 12,8 -17,72 -147,334 -155,312 -162,327 -162,385 0,58 6,73 161,382 126,252 158,324 148,331 -17,11 -759,12 -776,1 z"
       id="path1288"
       style="fill:#ff6922;fill-opacity:1" />
    <path
       d="m 2340,3177 c -78,-35 -322,-152 -365,-174 -214,-111 -315,-171 -315,-188 0,-11 101,-95 113,-95 2,0 139,-89 303,-199 164,-109 304,-196 311,-194 11,4 13,90 11,431 -3,464 -1,446 -58,419 z"
       id="path1290"
       style="fill:#ff6922;fill-opacity:1" />
    <path
       d="m 11087,3183 c -4,-3 -7,-196 -7,-429 0,-340 3,-423 13,-427 7,-3 148,85 312,194 165,109 301,199 303,199 12,0 112,85 112,95 0,27 -391,237 -633,341 -84,36 -90,38 -100,27 z"
       id="path1292"
       style="fill:#ff6922;fill-opacity:1" />
  </g>
</svg>
